<svg xmlns="http://www.w3.org/2000/svg" version="1.1" xmlns:xlink="http://www.w3.org/1999/xlink" xmlns:svgjs="http://svgjs.com/svgjs" width="1443" height="446" preserveAspectRatio="none" viewBox="0 0 1443 446">
    <g mask="url(&quot;#SvgjsMask1950&quot;)" fill="none">
        <path d="M1317.95 71.37a31.48 31.48 0 1 0-11.2-61.95z" stroke="rgba(9, 132, 227, 1)"></path>
        <path d="M647.15 228.12L683.45 228.12L683.45 244.2L647.15 244.2z" fill="rgba(251, 192, 45, 1)"></path>
        <path d="M1259.68 118.52 a3.7 3.7 0 1 0 7.4 0 a3.7 3.7 0 1 0 -7.4 0z" stroke="rgba(251, 192, 45, 1)"></path>
        <path d="M1009.44 169.34L1029.29 169.34L1029.29 189.19L1009.44 189.19z" stroke="rgba(232, 67, 147, 1)"></path>
        <path d="M33.84 213.58L45.61 213.58L45.61 248.6L33.84 248.6z" stroke="rgba(232, 67, 147, 1)"></path>
        <path d="M478.28 401.06 a13.84 13.84 0 1 0 27.68 0 a13.84 13.84 0 1 0 -27.68 0z" stroke="rgba(251, 192, 45, 1)"></path>
        <path d="M379.55 409.77L415.92 409.77L415.92 446.14L379.55 446.14z" stroke="rgba(9, 132, 227, 1)"></path>
        <path d="M1167.3 353.85 a32.87 32.87 0 1 0 65.74 0 a32.87 32.87 0 1 0 -65.74 0z" fill="rgba(232, 67, 147, 1)"></path>
        <path d="M1399.73 231.36L1418.27 231.36L1418.27 249.9L1399.73 249.9z" stroke="rgba(9, 132, 227, 1)"></path>
        <path d="M1284.71 357.66a43.05 43.05 0 1 0 76.72 39.08z" fill="rgba(251, 192, 45, 1)"></path>
        <path d="M1265.96 33L1267.93 33L1267.93 34.97L1265.96 34.97z" stroke="rgba(251, 192, 45, 1)"></path>
        <path d="M1140.11 113.61L1178.37 113.61L1178.37 151.87L1140.11 151.87z" stroke="rgba(9, 132, 227, 1)"></path>
        <path d="M963.57 252.08a2.24 2.24 0 1 0-4.45-0.45z" fill="rgba(9, 132, 227, 1)"></path>
        <path d="M236.58 125.61 a8.77 8.77 0 1 0 17.54 0 a8.77 8.77 0 1 0 -17.54 0z" stroke="rgba(9, 132, 227, 1)"></path>
        <path d="M198.12 180.59L207.75 180.59L207.75 217.61L198.12 217.61z" stroke="rgba(232, 67, 147, 1)"></path>
        <path d="M985.97 207.35 a3.82 3.82 0 1 0 7.64 0 a3.82 3.82 0 1 0 -7.64 0z" stroke="rgba(9, 132, 227, 1)"></path>
        <path d="M256.77 215.96L296.54 215.96L296.54 259.24L256.77 259.24z" fill="rgba(9, 132, 227, 1)"></path>
        <path d="M898.39 110.14L941.77 110.14L941.77 153.52L898.39 153.52z" fill="rgba(232, 67, 147, 1)"></path>
        <path d="M757.57 110.71 a7.6 7.6 0 1 0 15.2 0 a7.6 7.6 0 1 0 -15.2 0z" stroke="rgba(232, 67, 147, 1)"></path>
        <path d="M558.64 241.66 a29.11 29.11 0 1 0 58.22 0 a29.11 29.11 0 1 0 -58.22 0z" fill="rgba(232, 67, 147, 1)"></path>
        <path d="M247.92 326.1 a19.94 19.94 0 1 0 39.88 0 a19.94 19.94 0 1 0 -39.88 0z" stroke="rgba(251, 192, 45, 1)"></path>
        <path d="M142.05 243.49L158.31 243.49L158.31 259.75L142.05 259.75z" fill="rgba(251, 192, 45, 1)"></path>
        <path d="M1167.96 408.73L1193.13 408.73L1193.13 450.48L1167.96 450.48z" stroke="rgba(251, 192, 45, 1)"></path>
        <path d="M1251.8 0.47 a2.6 2.6 0 1 0 5.2 0 a2.6 2.6 0 1 0 -5.2 0z" stroke="rgba(9, 132, 227, 1)"></path>
        <path d="M908.43 336.8 a20.54 20.54 0 1 0 41.08 0 a20.54 20.54 0 1 0 -41.08 0z" fill="rgba(232, 67, 147, 1)"></path>
        <path d="M1329.06 26.67L1335.68 26.67L1335.68 28.84L1329.06 28.84z" fill="rgba(9, 132, 227, 1)"></path>
        <path d="M1238.33 28.93L1258.82 28.93L1258.82 35.98L1238.33 35.98z" fill="rgba(9, 132, 227, 1)"></path>
        <path d="M13.1 150.71L24.85 150.71L24.85 162.46L13.1 162.46z" stroke="rgba(232, 67, 147, 1)"></path>
        <path d="M681.67 404.93 a42.49 42.49 0 1 0 84.98 0 a42.49 42.49 0 1 0 -84.98 0z" fill="rgba(9, 132, 227, 1)"></path>
        <path d="M7.8 442.74L31.62 442.74L31.62 466.56L7.8 466.56z" fill="rgba(251, 192, 45, 1)"></path>
        <path d="M1032.7 86.11L1055.71 86.11L1055.71 109.12L1032.7 109.12z" fill="rgba(251, 192, 45, 1)"></path>
        <path d="M377.38 14.74a22.97 22.97 0 1 0 41.13 20.46z" fill="rgba(9, 132, 227, 1)"></path>
        <path d="M1431.9 25.71 a8.85 8.85 0 1 0 17.7 0 a8.85 8.85 0 1 0 -17.7 0z" fill="rgba(232, 67, 147, 1)"></path>
        <path d="M889.11 182.09L921.94 182.09L921.94 214.92L889.11 214.92z" fill="rgba(232, 67, 147, 1)"></path>
        <path d="M188.87 78.2a30.64 30.64 0 1 0 7.53 60.81z" fill="rgba(9, 132, 227, 1)"></path>
        <path d="M273.1 75.66 a37.53 37.53 0 1 0 75.06 0 a37.53 37.53 0 1 0 -75.06 0z" fill="rgba(9, 132, 227, 1)"></path>
        <path d="M-8.05 30.44 a24.31 24.31 0 1 0 48.62 0 a24.31 24.31 0 1 0 -48.62 0z" stroke="rgba(232, 67, 147, 1)"></path>
        <path d="M469.3 54.88L482.96 54.88L482.96 68.54L469.3 68.54z" fill="rgba(251, 192, 45, 1)"></path>
        <path d="M725.02 164.31a7.99 7.99 0 1 0-15.8-2.44z" fill="rgba(9, 132, 227, 1)"></path>
        <path d="M609.62 341.28 a5.81 5.81 0 1 0 11.62 0 a5.81 5.81 0 1 0 -11.62 0z" stroke="rgba(9, 132, 227, 1)"></path>
        <path d="M257.32 416.08L260.34 416.08L260.34 419.1L257.32 419.1z" fill="rgba(251, 192, 45, 1)"></path>
    </g>
    <defs>
        <mask id="SvgjsMask1950">
            <rect width="1443" height="446" fill="#ffffff"></rect>
        </mask>
    </defs>
</svg>