<?xml version="1.0" standalone="no"?>
<svg version="1.1" id="Layer_1" xmlns="http://www.w3.org/2000/svg" xmlns:xlink="http://www.w3.org/1999/xlink" x="0px" y="0px" width="595.276px" height="595.276px" viewBox="0 0 595.276 595.276" enable-background="new 0 0 595.276 595.276" xml:space="preserve">
<path id="color_x5F_6" fill-rule="evenodd" clip-rule="evenodd" fill="#1ACEBD" d="M498.752,500.918h-1.31
	c2.506-4.703,4.227-9.885,4.965-15.381c6.373-6.244,14.467-9.646,22.741-10.305c-0.668,8.391-4.158,16.599-10.573,23.013
	c-0.957,0.957-1.955,1.845-2.986,2.674h-11.423l16.753-16.751c0.097-0.094,0.153-0.224,0.153-0.36c0-0.274-0.226-0.499-0.5-0.499
	h-0.015c-0.13,0.005-0.254,0.059-0.344,0.153L498.752,500.918L498.752,500.918z M481.773,500.918h-11.421
	c-1.032-0.828-2.032-1.717-2.988-2.674c-6.393-6.393-9.88-14.567-10.571-23.013c8.273,0.659,16.367,4.061,22.741,10.305
	c0.738,5.496,2.459,10.678,4.965,15.381h-1.312l-17.458-17.457c-0.094-0.098-0.224-0.153-0.359-0.153
	c-0.275,0-0.499,0.226-0.499,0.499c0,0.136,0.055,0.266,0.152,0.36L481.773,500.918L481.773,500.918z M490.97,450.205
	c6.739,7.856,10.854,18.029,10.854,29.183c0,1.959-0.128,3.887-0.371,5.78c-0.013,0.044-0.02,0.089-0.02,0.135
	c-0.737,5.596-2.511,10.864-5.115,15.615h-4.849v-35.572v-0.008c0-0.274-0.226-0.499-0.499-0.499h-0.008
	c-0.272,0.004-0.492,0.229-0.492,0.499c0,0.003,0.001,0.005,0.001,0.008v35.572h-4.848c-2.596-4.736-4.366-9.986-5.107-15.563
	c0.007-0.075-0.003-0.151-0.03-0.222c-0.24-1.882-0.369-3.798-0.369-5.745C480.117,468.234,484.229,458.062,490.97,450.205z
	 M88.64,440.877h-4.847c-2.607-4.755-4.381-10.028-5.117-15.629c-0.001-0.039-0.007-0.077-0.016-0.114
	c-0.245-1.895-0.373-3.827-0.373-5.789c0-11.154,4.112-21.326,10.852-29.181c6.739,7.855,10.852,18.027,10.852,29.181
	c0,1.963-0.128,3.896-0.373,5.793c-0.009,0.037-0.014,0.075-0.015,0.114c-0.737,5.599-2.512,10.871-5.117,15.625h-4.848v-35.572
	v-0.008c0-0.274-0.226-0.499-0.499-0.499h-0.008c-0.271,0.004-0.491,0.229-0.491,0.499V440.877z M96.923,440.877h-1.312
	c2.506-4.702,4.227-9.884,4.964-15.379c6.353-6.225,14.414-9.629,22.744-10.31c-0.668,8.393-4.158,16.601-10.573,23.015
	c-0.957,0.957-1.958,1.846-2.988,2.675H98.335l16.754-16.751c0.097-0.095,0.152-0.225,0.152-0.36c0-0.274-0.225-0.499-0.499-0.499
	h-0.018c-0.129,0.004-0.253,0.058-0.343,0.151L96.923,440.877L96.923,440.877z M79.944,440.877H68.523
	c-1.032-0.829-2.031-1.717-2.989-2.675c-6.414-6.414-9.905-14.622-10.573-23.015c8.276,0.659,16.369,4.064,22.744,10.31
	c0.737,5.495,2.459,10.676,4.965,15.379h-1.313l-17.459-17.459c-0.094-0.097-0.223-0.151-0.358-0.151h-0.002
	c-0.274,0-0.499,0.226-0.499,0.499c0,0.136,0.055,0.265,0.153,0.36L79.944,440.877L79.944,440.877z"></path>
<path id="color_x5F_5" fill-rule="evenodd" clip-rule="evenodd" fill="#FFD2BB" d="M445.081,337.617h-3.776l4.081-7.976
	c0.039-0.076,0.057-0.161,0.054-0.246l-0.16-4.378h19.658v13.019c-0.009,0.054-0.009,0.109,0,0.162v4.118
	c0,0.236-0.022,0.465-0.053,0.693c-0.005,0.023-0.008,0.046-0.01,0.07c-0.369,2.493-2.506,4.401-5.103,4.401H449.64
	c-1.996,0-3.636-1.551-3.743-3.544c-0.02-0.359-0.022-0.404-0.041-0.767c0.006-0.058,0.003-0.117-0.01-0.174
	c-0.124-2.281-0.258-4.756-0.262-4.826c0.002-0.017,0.003-0.035,0.003-0.053c0-0.274-0.226-0.499-0.499-0.499H445.081
	L445.081,337.617z M283.058,290.684l1.631,1.777c0.143,0.156,0.369,0.205,0.562,0.123c3.147-1.324,6.189-0.993,7.051-0.881
	c-0.252,0.582-0.957,2.214-1.664,3.85v0.002c-0.604,1.402-0.33,3.03,0.702,4.155c1.867,2.035,5.115,5.575,7.448,8.117
	c1.366,1.49,1.311,3.781-0.127,5.201c-2.07,2.043-4.876,4.812-7.16,7.067c-1.353,1.335-3.247,1.763-4.955,1.309
	c0.044-0.029,0.09-0.052,0.134-0.082v-0.002c0.095-0.065,0.192-0.129,0.288-0.193h0.002c0.778-0.529,1.313-1.35,1.482-2.277
	c0.168-0.926-0.044-1.883-0.587-2.651c-2.205-3.115-5.952-8.403-8.17-11.537v-0.002c-0.549-0.775-1.392-1.294-2.333-1.437
	c-0.941-0.144-1.903,0.102-2.659,0.68c-0.398,0.305-0.815,0.625-1.227,0.941c-0.883,0.675-1.445,1.612-1.697,2.62
	c-1.205-1.22-1.604-1.624-2.863-2.898L283.058,290.684z M276.704,304.186c0.168-0.008,0.337-0.001,0.505,0.025h0.002
	c0.672,0.102,1.273,0.474,1.668,1.03c2.218,3.135,5.965,8.423,8.17,11.537c0.389,0.55,0.539,1.233,0.419,1.897
	c-0.122,0.661-0.503,1.246-1.06,1.625c-0.094,0.063-0.192,0.13-0.291,0.197c-2.365,1.601-5.567,0.986-7.169-1.379
	c-1.819-2.684-4.054-5.987-5.69-8.402c-1.117-1.648-0.757-3.868,0.823-5.078h0.002c0.411-0.316,0.829-0.636,1.228-0.941
	C275.717,304.387,276.203,304.211,276.704,304.186L276.704,304.186z M294.698,290.657l12.291,15.701
	c-2.799,1.897-3.612,2.446-6.232,4.222c0.057-1.223-0.346-2.463-1.233-3.43c-2.333-2.542-5.581-6.081-7.448-8.115
	c-0.768-0.836-0.971-2.043-0.521-3.085c0.803-1.861,1.834-4.241,1.893-4.378L294.698,290.657L294.698,290.657z M384.286,197.672
	h-2.945v-10.711c6.355-0.971,11.441-1.748,11.441-1.748c0.25-0.031,0.438-0.245,0.438-0.496c0-0.274-0.225-0.499-0.499-0.499
	c-0.03,0-0.06,0.003-0.09,0.008c0,0-5.116,0.782-11.79,1.801h-0.008c-0.046,0.001-0.091,0.008-0.135,0.021
	c-0.326,0.05-0.236,0.037-0.571,0.088c-2.943,0.449-5.941-0.355-8.264-2.215c-2.324-1.863-3.761-4.611-3.963-7.581
	c-0.435-6.362-0.67-9.778-0.999-14.594v-0.017c-0.001-0.01-0.001-0.021-0.002-0.031c-0.001-0.007-0.002-0.013-0.002-0.02
	c-0.205-2.985-0.609-8.89-0.623-9.092l31.893-3.231l4.92,12.368c0.067,0.265,0.34,0.428,0.605,0.363
	c0.894-0.214,1.85-0.216,2.801,0.039c1.224,0.328,2.241,1.031,2.975,1.948c0.034,0.072,0.085,0.136,0.148,0.185
	c0.994,1.35,1.387,3.122,0.919,4.869c-0.639,2.388-2.697,4.008-5.023,4.212c-0.021-0.001-0.042,0-0.063,0.002
	c-0.023,0.002-0.047,0.006-0.07,0.012c-0.605,0.038-1.227-0.016-1.846-0.182c-0.048-0.015-0.099-0.023-0.15-0.023
	c-0.274,0-0.499,0.225-0.499,0.499c0,0.233,0.163,0.436,0.391,0.487c0.585,0.157,1.173,0.224,1.752,0.222l1.593,23.318h-8.488
	c-0.023-0.004-0.046-0.007-0.07-0.008c-0.036-0.001-0.072,0.002-0.107,0.008h-13.494c-0.023-0.004-0.046-0.007-0.069-0.008
	C384.357,197.663,384.321,197.666,384.286,197.672L384.286,197.672z M193.413,197.672h-25.674l0.958-18.257l13.899-8.109
	c1.758,2.19,4.784,3.13,7.56,2.108c0.196-0.072,0.327-0.261,0.327-0.469c0-0.274-0.226-0.499-0.499-0.499
	c-0.059,0-0.118,0.01-0.173,0.03c-2.471,0.911-5.157,0.003-6.617-2.039c-0.024-0.053-0.058-0.102-0.1-0.144
	c-0.248-0.371-0.461-0.771-0.622-1.208c-1.091-2.965,0.425-6.247,3.391-7.339c0.466-0.172,0.939-0.277,1.41-0.324h0.002
	c0.462-0.046,0.923-0.036,1.373,0.029c0.033,0.007,0.066,0.01,0.099,0.01c0.275,0,0.499-0.225,0.499-0.499
	c0-0.258-0.199-0.475-0.455-0.497c-0.268-0.039-0.539-0.06-0.812-0.066l4.286-10.002h15.072c0.012,0.532,0.304,13.423,0.538,23.799
	c0.067,2.977-1.116,5.846-3.262,7.91c-2.144,2.064-5.055,3.136-8.027,2.955h-0.004c-3.633-0.193-9.323-0.765-9.323-0.765
	c-0.016-0.001-0.033-0.002-0.05-0.002c-0.275,0-0.5,0.226-0.5,0.499c0,0.257,0.197,0.472,0.451,0.498c0,0,3.134,0.315,6.253,0.557
	L193.413,197.672L193.413,197.672z"></path>
<path id="color_x5F_4" fill-rule="evenodd" clip-rule="evenodd" fill="#00CEC9" d="M436.278,415.597h-16.629
	c-2.773,0-5.013-2.242-5.013-5.014v-38.781l29.708,16.638v5.577c0,1.029,0.844,1.873,1.873,1.873h17.61
	c1.028,0,1.873-0.844,1.873-1.873v-5.577l29.708-16.638v38.781c0,2.772-2.242,5.014-5.016,5.014H436.44
	C436.386,415.588,436.331,415.588,436.278,415.597z M446.217,381.168c-1.028,0-1.873,0.842-1.873,1.871v4.259l-29.708-16.641v-4.182
	c0-2.744,2.193-4.966,5.013-5.014h16.631c0.053,0.009,0.108,0.009,0.162,0h4.832c0.053,0.009,0.108,0.009,0.162,0h27.174
	c0.053,0.009,0.108,0.009,0.162,0h4.832c0.053,0.009,0.108,0.009,0.162,0h16.626c2.774,0,5.016,2.241,5.016,5.014v4.182
	L465.7,387.298v-4.259c0-1.029-0.845-1.871-1.873-1.871H446.217z M442.023,338.616h2.585c0.017,0.33,0.124,2.255,0.218,3.995h-2.056
	c-1.053,0-1.916,0.864-1.916,1.916v15.936h-3.995v-8.392v-0.035v-8.256c0-1.369,0.543-2.684,1.511-3.652
	C439.339,339.16,440.653,338.616,442.023,338.616L442.023,338.616z M473.184,360.462h-3.995v-15.936
	c0-1.052-0.864-1.916-1.916-1.916h-1.35c0.005-0.098,0.014-0.195,0.014-0.295v-3.7h2.083c1.369,0,2.684,0.544,3.652,1.512
	c0.969,0.968,1.512,2.282,1.512,3.652L473.184,360.462L473.184,360.462z M387.759,206.592h6.904l4.863,63.871l-8.314,9.407
	l-8.315-9.407L387.759,206.592L387.759,206.592z M394.778,205.593h-7.134l-2.547-6.922h12.229L394.778,205.593z M407.237,140.771
	c0.01,0.006,0.02,0.011,0.031,0.016c5.289,2.209,7.852,8.214,5.79,13.562c-1.671,4.332-3.046,7.895-3.301,8.556
	c-0.806-0.809-1.824-1.427-3.004-1.744c-0.965-0.258-1.937-0.282-2.863-0.123l-4.932-12.403c-0.076-0.191-0.263-0.316-0.467-0.314
	c-0.016,0-0.032,0.001-0.047,0.002l-32.749,3.316c-0.267,0.027-0.467,0.264-0.448,0.53c0,0,0.409,5.993,0.6,8.786
	c-1.647-0.702-7.165-3.325-12.83-9.416l7.949-7.122c0.106-0.095,0.167-0.231,0.167-0.373c0-0.161-0.078-0.313-0.21-0.406
	c0,0-5.356-3.887-6.878-12.866c0.712-0.038,21.19-1.104,35.63-1.856c0.481-0.025,0.961-0.03,1.436-0.015
	c7.127,0.213,13.467,4.775,15.878,11.589C407.032,140.612,407.121,140.713,407.237,140.771L407.237,140.771L407.237,140.771z
	 M499.131,154.149h-20.826v-5.029h18.688c0.053,0.009,0.108,0.009,0.162,0h1.976V154.149L499.131,154.149z M477.306,154.149H455.11
	v-5.029h22.196L477.306,154.149L477.306,154.149z M454.541,148.122h-3.355l-0.001-5.027h1.977c0.054,0.008,0.108,0.008,0.162,0
	h20.056v5.027h-18.694c-0.027-0.005-0.054-0.007-0.082-0.006C454.582,148.116,454.562,148.118,454.541,148.122L454.541,148.122z
	 M477.736,148.122h-3.358v-5.027h1.979c0.053,0.008,0.108,0.008,0.162,0h20.056v5.027h-18.694c-0.027-0.005-0.055-0.007-0.082-0.006
	C477.777,148.116,477.756,148.118,477.736,148.122L477.736,148.122z M104.084,147.55h-11.38c-0.122-2.596-1.073-5.089-2.845-7.003
	c-0.002-0.002-0.004-0.004-0.006-0.006c-1.997-2.091-3.211-4.924-3.211-8.045c0-6.507,5.275-11.781,11.781-11.781
	c6.507,0,11.781,5.274,11.781,11.781c0,3.161-1.246,6.028-3.273,8.144c-0.001,0.002-0.002,0.003-0.002,0.004
	C105.159,142.522,104.207,144.984,104.084,147.55L104.084,147.55z M475.937,142.096h-22.196v-5.03h18.21
	c0.097,0.03,0.199,0.03,0.295,0h3.692v3.781c-0.007,0.047-0.007,0.096,0,0.144L475.937,142.096L475.937,142.096z M482.601,118.727
	c6.453,0,11.683,5.23,11.683,11.683c0,6.454-5.23,11.685-11.683,11.685c-2.06,0-3.985-0.545-5.665-1.48v-4.048
	c0-0.274-0.226-0.499-0.499-0.499h-4.044c-0.933-1.678-1.477-3.601-1.477-5.657C470.915,123.986,476.101,118.774,482.601,118.727
	L482.601,118.727z M191.934,149.399c-0.2,0-0.38,0.12-0.458,0.303l-4.619,10.78c-0.448,0.066-0.898,0.167-1.34,0.33
	c-3.473,1.277-5.261,5.148-3.983,8.621c0.136,0.37,0.308,0.717,0.499,1.047l-13.594,7.93c-0.254-0.561-5.687-12.594-9.861-21.838
	c-2.386-5.284-0.256-11.498,4.869-14.208c0.043-0.023,0.084-0.053,0.119-0.088v-0.002c0.073-0.072,0.122-0.165,0.14-0.265
	c1.178-6.642,6.809-11.382,13.299-11.656c0.927-0.04,1.871,0.013,2.823,0.164c13.281,2.101,30.809,4.875,31.202,4.937
	c1.184,4.688,0.341,8.174-0.829,10.507c-1.053,2.098-2.268,3.192-2.561,3.439L191.934,149.399L191.934,149.399z"></path>
<path id="color_x5F_3" fill-rule="evenodd" clip-rule="evenodd" fill="#E84393" d="M165.358,459.802h-25.36v-55.464
	c0.009-0.054,0.009-0.108,0-0.162v-90.345h81.048l-0.28,90.347c-0.008,0.053-0.008,0.107,0,0.16l-0.172,55.464h-25.355
	l-4.529-55.494c0.005-0.059,0.001-0.119-0.014-0.176l-6.311-77.332c-0.021-0.258-0.239-0.458-0.497-0.458h-5.144
	c-0.105-0.036-0.22-0.036-0.326,0h-3.383h-0.007c-0.274,0-0.499,0.226-0.499,0.499c0,0.275,0.226,0.499,0.499,0.499h2.999
	l-7.346,76.8c-0.012,0.049-0.017,0.1-0.014,0.15L165.358,459.802z M381.908,459.802H356.55l-0.67-55.321
	c0.071-0.144,0.068-0.314-0.006-0.454l-1.093-90.195h19.691c0.274,0,0.499-0.226,0.499-0.499V302.28h10.093
	c0.054,0.008,0.109,0.008,0.162,0h12.513c0.053,0.008,0.108,0.008,0.162,0h15.201v11.053c0,0.274,0.225,0.499,0.499,0.499h22.26
	v46.63H419.65c-3.314,0.001-6.012,2.7-6.012,6.013v4.386c-0.01,0.057-0.01,0.116,0,0.173v39.55c0,3.313,2.698,6.012,6.012,6.013
	h16.211v43.206h-25.362c-0.031-0.328-2.948-30.834-5.308-55.5c0.005-0.06-0.001-0.12-0.018-0.178
	c-3.182-33.268-6.142-64.203-7.151-74.768c-0.163-1.704-1.602-3.014-3.314-3.014h-2.279c-0.1-0.033-0.209-0.033-0.31,0h-3.584
	h-0.007c-0.275,0-0.499,0.226-0.499,0.499c0,0.275,0.225,0.499,0.499,0.499h3.208l-5.698,76.804
	c-0.013,0.053-0.017,0.109-0.012,0.164L381.908,459.802L381.908,459.802z"></path>
<path id="color_x5F_2" fill-rule="evenodd" clip-rule="evenodd" fill="#FBC02D" d="M431.266,480.828h-29.968
	c-1.453,0-2.848-0.577-3.876-1.605c-1.028-1.029-1.605-2.423-1.605-3.876c0-1.617,0.718-3.15,1.961-4.185l12.448-10.36h25.635
	v15.432c0,1.219-0.484,2.386-1.346,3.248C433.652,480.343,432.484,480.828,431.266,480.828z M356.228,460.801h25.608
	c-0.047,0.629-0.726,9.777-1.171,15.772c-0.179,2.404-2.173,4.255-4.584,4.255h-30.007c-1.489,0-2.909-0.62-3.923-1.713
	c-1.012-1.09-1.524-2.551-1.416-4.036v-0.006c0.107-1.438,0.814-2.764,1.95-3.654C346.838,468.164,356.043,460.947,356.228,460.801
	L356.228,460.801z M435.861,312.833H414.1V301.86c0.009-0.054,0.009-0.109,0-0.162v-11.653c0.009-0.053,0.009-0.108,0-0.162V198.67
	h21.55c6.184,0,11.591,4.148,13.191,10.121c5.172,19.301,15.67,58.48,15.67,58.48c0.001,0.003,0.002,0.006,0.002,0.01
	c0.276,0.954,0.425,1.963,0.425,3.005v53.732h-19.693l-1.888-51.782c-0.002-0.047-0.01-0.093-0.024-0.137l-6.474-19.89v-15.831
	v-0.007c0-0.274-0.226-0.499-0.499-0.499c-0.275,0-0.499,0.226-0.499,0.499v15.875c-0.002,0.022-0.002,0.044,0,0.066
	L435.861,312.833L435.861,312.833z M355.056,198.671h18.917v91.215c-0.009,0.054-0.009,0.109,0,0.162V301.7
	c-0.009,0.054-0.009,0.109,0,0.163v10.971h-19.198v-52.378c0.002-0.024,0.002-0.049,0-0.074V236.38v-0.008
	c0-0.274-0.226-0.499-0.499-0.499h-0.008c-0.271,0.004-0.491,0.229-0.491,0.499v23.989l-3.625,13.527
	c-0.006,0.016-0.011,0.032-0.015,0.049c-0.65,2.428-2.139,4.641-4.384,6.161c0,0-20.833,14.115-37.935,25.7l-12.317-15.729
	l34.31-25.116c0.099-0.072,0.168-0.178,0.193-0.298c0,0,7.681-36.232,11.693-55.16C343.035,203.181,348.603,198.671,355.056,198.671
	L355.056,198.671z M384.645,301.28h-9.673v-10.815h9.673V301.28z M413.101,301.28h-14.783v-10.815h14.783V301.28z M101.499,155.148
	c-0.224,1.554-1.498,2.761-3.117,2.761h-0.004c-1.618,0-2.891-1.207-3.115-2.761H101.499z M102.471,154.149h-8.182
	c-0.396,0-0.775-0.157-1.055-0.437s-0.437-0.659-0.437-1.055v-4.109h11.166v4.109c0,0.396-0.157,0.775-0.437,1.055
	C103.246,153.993,102.867,154.149,102.471,154.149L102.471,154.149z M145.329,198.671h48.503c0.054,0.009,0.109,0.009,0.163,0
	h25.072c6.971,0,13.179,4.391,15.499,10.964c5.869,16.628,16.144,45.742,16.144,45.742c0.022,0.063,0.058,0.121,0.103,0.17
	l31.57,34.402l-14.169,13.907c-15.338-15.537-34.618-35.067-34.618-35.067h0.002c-1.041-1.055-1.821-2.268-2.341-3.562
	c0-0.003-0.001-0.006-0.002-0.008l-9.194-21.742c-0.01-0.032-0.023-0.062-0.039-0.092l-4.026-9.521
	c-0.077-0.191-0.265-0.315-0.47-0.312c-0.272,0.003-0.492,0.228-0.492,0.499c0,0.069,0.014,0.138,0.042,0.201l4.007,9.474v58.052
	l-0.034,11.054h-81.051v-68.066c0.003-0.033,0.003-0.066,0-0.099v-15.464v-0.008c0-0.274-0.226-0.499-0.499-0.499h-0.008
	c-0.271,0.005-0.491,0.229-0.491,0.499v15.423l-5.987,14.679c-0.069,0.169-0.041,0.362,0.074,0.503l5.913,7.251v31.902
	l-26.667-30.367c-2.659-3.027-3.322-7.119-2.099-10.675c0.001-0.001,0.002-0.002,0.002-0.004c0,0,9.269-27.365,15.243-45.003
	C128.361,204.395,136.343,198.671,145.329,198.671L145.329,198.671z"></path>
<path id="color_x5F_1" fill="#0984E3" d="M263.262,92.117c-0.547,0.008-0.991,0.464-0.983,1.012v7.367
	c0,0.547,0.45,0.999,0.999,0.999c0.547,0,0.999-0.451,0.999-0.999v-0.014v-7.353v-0.013c0-0.548-0.451-1-0.999-1
	C263.273,92.116,263.267,92.116,263.262,92.117z M98.423,92.128c-23.184,0-42,18.818-42,42.002s18.816,42,42,42s42-18.816,42-42
	S121.607,92.128,98.423,92.128z M476.157,92.128c-23.184,0-41.999,18.818-41.999,42.002s18.815,42,41.999,42
	c23.185,0,42-18.816,42-42S499.341,92.128,476.157,92.128z M98.423,94.125c22.104,0,40.002,17.9,40.002,40.004
	s-17.898,40.002-40.002,40.002s-40.002-17.898-40.002-40.002S76.319,94.125,98.423,94.125z M476.157,94.125
	c22.105,0,40.002,17.9,40.002,40.004s-17.897,40.002-40.002,40.002c-22.104,0-40.001-17.898-40.001-40.002
	S454.052,94.125,476.157,94.125z M250.662,97.341c-0.547,0.001-0.997,0.451-0.997,0.999c0,0.27,0.109,0.528,0.303,0.716l5.199,5.201
	c0.188,0.196,0.448,0.307,0.72,0.307c0.548,0,0.999-0.45,0.999-0.999c0-0.272-0.111-0.532-0.307-0.72l-5.199-5.201
	C251.191,97.449,250.932,97.341,250.662,97.341z M275.863,97.341c-0.259,0.008-0.505,0.116-0.686,0.303l-5.199,5.201
	c-0.197,0.188-0.308,0.448-0.308,0.72c0,0.548,0.451,0.999,0.999,0.999c0.273,0,0.532-0.111,0.721-0.307l5.199-5.201
	c0.194-0.188,0.303-0.446,0.303-0.716c0-0.548-0.451-0.999-0.999-0.999L275.863,97.341L275.863,97.341z M467.806,106.268
	c-0.547,0.008-0.991,0.464-0.983,1.012v2.093h-2.093h-0.014c-0.548,0-0.999,0.45-0.999,0.999c0,0.548,0.45,0.999,0.999,0.999h2.107
	v2.105c0,0.547,0.45,0.999,0.999,0.999c0.547,0,0.999-0.451,0.999-0.999v-0.014v-2.091h2.105c0.547,0,0.999-0.45,0.999-0.999
	c0-0.548-0.451-0.999-0.999-0.999h-0.015h-2.09v-2.093v-0.013c0-0.548-0.451-1-0.999-1
	C467.817,106.267,467.811,106.267,467.806,106.268L467.806,106.268z M98.407,107.711c-0.546,0.008-0.99,0.465-0.983,1.013v4.799
	c0,0.547,0.45,0.999,0.999,0.999c0.548,0,0.999-0.451,0.999-0.999v-0.014v-4.785v-0.014c0-0.548-0.45-0.999-0.999-0.999H98.407z
	 M245.451,109.956h-0.014c-0.548,0-0.999,0.45-0.999,0.999c0,0.548,0.45,0.999,0.999,0.999h7.383c0.547,0,0.999-0.45,0.999-0.999
	c0-0.548-0.451-0.999-0.999-0.999h-0.015H245.451L245.451,109.956z M273.751,109.956h-0.014c-0.548,0-0.999,0.45-0.999,0.999
	c0,0.548,0.45,0.999,0.999,0.999h7.381c0.547,0,0.999-0.45,0.999-0.999c0-0.548-0.451-0.999-0.999-0.999h-0.015H273.751z
	 M81.968,114.527c-0.547,0-0.998,0.451-0.998,0.999c0,0.27,0.109,0.528,0.302,0.716l3.385,3.385c0.188,0.196,0.448,0.307,0.72,0.307
	c0.548,0,0.999-0.45,0.999-0.999c0-0.272-0.111-0.532-0.307-0.721l-3.385-3.384C82.497,114.635,82.238,114.527,81.968,114.527z
	 M114.848,114.527c-0.259,0.008-0.505,0.116-0.686,0.303l-3.385,3.384c-0.196,0.189-0.307,0.449-0.307,0.721
	c0,0.548,0.45,0.999,0.999,0.999c0.272,0,0.532-0.111,0.72-0.307l3.385-3.385c0.194-0.188,0.303-0.446,0.303-0.716
	c0-0.548-0.451-0.999-0.999-0.999H114.848L114.848,114.527z M482.601,117.234c-7.265,0-13.184,5.917-13.184,13.181
	c0,1.828,0.377,3.573,1.052,5.158h-17.227c-0.547,0-0.999,0.451-0.999,0.999v5.029h-1.557c-0.547,0.001-0.998,0.451-0.999,0.999
	v6.027c0.001,0.547,0.451,0.999,0.999,0.999h2.926v5.029c0,0.547,0.451,0.999,0.999,0.999h45.019c0.548,0,0.999-0.451,0.999-0.999
	v-6.028c0-0.548-0.45-0.999-0.999-0.999h-1.558V142.6c0-0.547-0.451-0.998-0.999-0.999h-7.534c3.738-2.33,6.242-6.468,6.242-11.185
	C495.782,123.151,489.865,117.234,482.601,117.234L482.601,117.234z M255.853,117.351c-0.26,0.008-0.505,0.117-0.686,0.303
	l-5.199,5.199c-0.188,0.188-0.294,0.442-0.294,0.707c0,0.548,0.45,1,0.999,1c0.266,0,0.519-0.106,0.707-0.293l5.199-5.201
	c0.193-0.188,0.303-0.446,0.303-0.716c0-0.548-0.451-0.999-0.999-0.999C255.883,117.351,255.853,117.351,255.853,117.351z
	 M270.673,117.351c-0.547,0.001-0.997,0.451-0.997,0.999c0,0.27,0.109,0.528,0.303,0.716l5.199,5.201
	c0.187,0.187,0.441,0.293,0.706,0.293c0.548,0,0.999-0.451,0.999-1c0-0.265-0.105-0.519-0.293-0.707l-5.199-5.199
	C271.202,117.46,270.943,117.351,270.673,117.351L270.673,117.351z M98.423,119.222c-7.317,0-13.279,5.961-13.279,13.279
	c0,3.511,1.37,6.718,3.625,9.079c1.627,1.764,2.53,4.075,2.53,6.474v4.608c0,0.794,0.316,1.553,0.874,2.112
	c0.001,0.001,0.002,0.001,0.002,0.002c0.435,0.434,0.993,0.716,1.59,0.823c0.42,2.163,2.332,3.812,4.613,3.812h0.004
	c2.281,0,4.195-1.649,4.615-3.812c0.597-0.107,1.154-0.389,1.588-0.823c0.56-0.56,0.876-1.322,0.876-2.114v-4.39
	c0.016-0.072,0.025-0.145,0.025-0.219c0-2.368,0.904-4.645,2.527-6.37l0.006-0.006c2.279-2.384,3.683-5.625,3.683-9.177
	C111.702,125.183,105.741,119.222,98.423,119.222L98.423,119.222z M482.601,119.232c6.182,0,11.183,5.001,11.183,11.184
	c0,6.182-5.001,11.185-11.183,11.185c-1.871,0-3.619-0.479-5.166-1.289v-3.739c0-0.548-0.451-0.999-0.999-0.999H472.7
	c-0.808-1.546-1.285-3.291-1.285-5.158C471.414,124.233,476.417,119.232,482.601,119.232L482.601,119.232z M263.262,120.414
	c-0.547,0.008-0.991,0.465-0.983,1.013v7.368c0,0.548,0.45,0.999,0.999,0.999c0.547,0,0.999-0.45,0.999-0.999v-0.014v-7.354v-0.014
	c0-0.548-0.451-0.999-0.999-0.999L263.262,120.414L263.262,120.414z M98.423,121.219c6.237,0,11.281,5.045,11.281,11.281
	c0,3.029-1.193,5.771-3.135,7.8c-0.002,0.002-0.004,0.004-0.006,0.006c-1.738,1.845-2.654,4.245-2.882,6.75H93.108
	c-0.227-2.533-1.142-4.963-2.881-6.844c-0.004-0.004-0.008-0.008-0.012-0.011c-1.911-2.002-3.072-4.708-3.072-7.7
	C87.142,126.264,92.187,121.22,98.423,121.219L98.423,121.219z M455.587,121.491c-0.548,0.007-0.993,0.464-0.986,1.013v2.092h-2.09
	h-0.014c-0.548,0-1,0.451-1,0.999c0,0.548,0.451,0.999,1,0.999h2.104v2.107c0,0.548,0.451,0.999,0.999,0.999s0.999-0.45,0.999-0.999
	v-0.014v-2.093h2.107c0.548,0,0.999-0.45,0.999-0.999c0-0.547-0.45-0.999-0.999-0.999h-0.014h-2.093v-2.092v-0.014
	c0-0.548-0.45-0.999-0.999-0.999L455.587,121.491L455.587,121.491z M482.585,122.336c-0.547,0.008-0.991,0.464-0.983,1.012v0.765
	h-0.282c-0.968,0-1.897,0.385-2.581,1.069c-0.685,0.684-1.069,1.614-1.069,2.581v0.004c0,0.967,0.385,1.897,1.069,2.581
	c0.685,0.685,1.614,1.068,2.581,1.068h0.282v3.308h-0.352c-0.885,0-1.582-0.696-1.582-1.582v-0.027V133.1
	c0-0.548-0.45-0.999-0.999-0.999s-0.999,0.45-0.999,0.999v0.041c0,1.966,1.615,3.58,3.58,3.58h0.352v0.765
	c0,0.004-0.001,0.009-0.001,0.014c0,0.548,0.451,0.999,1,0.999c0.547,0,0.999-0.45,0.999-0.999v-0.014v-0.765h0.281
	c0.966,0,1.896-0.385,2.581-1.069c0.684-0.684,1.069-1.613,1.069-2.581v-0.004c0-0.967-0.385-1.896-1.069-2.579
	c-0.684-0.684-1.614-1.071-2.581-1.071H483.6v-3.307h0.351c0.886,0,1.582,0.696,1.582,1.582v0.043c0,0.548,0.451,0.999,0.999,0.999
	s0.999-0.45,0.999-0.999v-0.014v-0.029c0-1.966-1.614-3.58-3.58-3.58H483.6v-0.765v-0.013c0-0.548-0.451-0.999-0.999-0.999
	L482.585,122.336L482.585,122.336z M98.423,123.483h-0.014c-0.548,0-0.999,0.45-0.999,0.999c0,0.548,0.45,0.999,0.999,0.999h0.014
	c3.886,0,7.02,3.135,7.02,7.02v0.015c0,0.547,0.451,0.999,0.999,0.999c0.548,0,0.999-0.451,0.999-0.999v-0.015
	C107.441,127.534,103.39,123.483,98.423,123.483z M481.32,126.111h0.282v3.307h-0.282c-0.438,0-0.858-0.172-1.169-0.482
	c-0.31-0.31-0.483-0.729-0.483-1.169v-0.004c0-0.439,0.175-0.858,0.483-1.167C480.462,126.285,480.882,126.111,481.32,126.111z
	 M391.132,127.408c-0.509-0.015-1.021-0.009-1.536,0.017c-14.69,0.765-36.247,1.887-36.247,1.887
	c-0.527,0.028-0.946,0.469-0.946,0.998c0,0.048,0.003,0.096,0.01,0.144c1.107,7.611,4.943,11.961,6.709,13.61l-7.511,6.726
	c-0.211,0.19-0.333,0.46-0.333,0.744c0,0.249,0.093,0.488,0.261,0.672c6.198,6.836,12.422,9.608,13.907,10.213
	c0.338,4.942,0.541,7.911,0.96,14.027c0.231,3.388,1.871,6.526,4.522,8.65c2.515,2.015,5.724,2.926,8.915,2.577v9.505h-24.787
	c-7.152,0-13.341,5.014-14.823,12.011c-3.985,18.8-11.513,54.301-11.615,54.784l-34.29,25.098c-0.094,0.048-0.179,0.111-0.252,0.186
	l-1.311,0.96c-0.995-0.116-4.122-0.359-7.383,0.788l-1.45-1.578c-0.062-0.1-0.142-0.188-0.236-0.26l-31.641-34.48
	c-0.087-0.246-10.232-28.989-16.075-45.546c-2.53-7.167-9.312-11.964-16.911-11.964h-24.157v-10.721
	c0.537,0.037,1.105,0.082,1.59,0.107c3.387,0.204,6.705-1.021,9.149-3.373c2.448-2.354,3.796-5.627,3.72-9.022
	c-0.235-10.391-0.527-23.341-0.538-23.836c0.588-0.556,1.747-1.785,2.706-3.697c1.335-2.663,2.285-6.676,0.882-11.877
	c-0.103-0.379-0.419-0.664-0.808-0.725c0,0-18.12-2.869-31.55-4.994c-1.05-0.167-2.094-0.224-3.119-0.18
	c-7.041,0.302-13.158,5.387-14.607,12.512c-5.466,3.2-7.755,9.994-5.125,15.819c4.23,9.366,9.878,21.877,9.99,22.125l-0.936,17.861
	H145.33c-9.622,0-18.185,6.138-21.271,15.251c-5.975,17.639-15.243,45.005-15.243,45.005c-1.39,4.047-0.626,8.711,2.392,12.147
	l27.293,31.08v102.603h-39.89c-2.003-5.41-4.976-10.351-8.722-14.597c-0.202-0.229-0.497-0.354-0.802-0.338
	c-0.268,0.014-0.518,0.136-0.696,0.338c-3.746,4.246-6.719,9.187-8.721,14.597H55.486h-0.014c-0.548,0-0.999,0.451-0.999,0.999
	s0.45,0.999,0.999,0.999h23.51c-1.417,4.446-2.192,9.176-2.192,14.087c0,1.148,0.052,2.282,0.135,3.41
	c-6.493-5.591-14.429-8.65-22.493-9.155c-0.034-0.003-0.068-0.003-0.101-0.002c-0.533,0.021-0.96,0.464-0.96,0.998
	c0,0.021,0,0.042,0.002,0.063c0.559,8.959,4.264,17.765,11.101,24.603c0.386,0.386,0.783,0.75,1.18,1.116h-6.867h-0.014
	c-0.547,0-0.999,0.451-0.999,0.999s0.451,0.999,0.999,0.999h60.48c0.548,0,0.999-0.45,0.999-0.999c0-0.547-0.45-0.999-0.999-0.999
	h-0.014h-6.615c0.398-0.366,0.795-0.73,1.18-1.116c6.839-6.838,10.542-15.644,11.102-24.603c0.001-0.021,0.002-0.042,0.002-0.063
	c0-0.535-0.43-0.98-0.966-0.998c-0.032-0.001-0.064,0-0.096,0.002c-8.064,0.503-16.001,3.564-22.492,9.155
	c0.082-1.128,0.134-2.262,0.134-3.41c0-4.911-0.775-9.641-2.192-14.087H138.5v70.977c0,1.614,0.64,3.164,1.783,4.307
	c1.142,1.142,2.694,1.785,4.31,1.785h29.968c1.85,0,3.627-0.735,4.935-2.045c1.308-1.308,2.045-3.084,2.045-4.935
	c0-2.061-0.918-4.018-2.501-5.337h-0.002c-3.952-3.289-11.661-9.707-12.178-10.138l5.222-54.614h17.206l4.499,55.127
	c0,0,0.827,10.148,1.332,16.343c0.257,3.153,2.91,5.598,6.075,5.598h30.004c1.911,0,3.737-0.801,5.033-2.206
	c1.295-1.405,1.944-3.29,1.789-5.195c-0.15-1.838-1.066-3.529-2.519-4.662c-4.086-3.184-12.895-10.051-13.406-10.448l0.168-54.557
	h132.13l0.661,54.565c-0.513,0.404-9.217,7.225-13.292,10.419c-1.363,1.069-2.183,2.647-2.411,4.354
	c-0.019,0.035-0.039,0.072-0.039,0.072s-0.02,0.093-0.037,0.186c-0.004,0.039-0.029,0.072-0.032,0.111l0.018-0.039
	c-0.006,0.031-0.011,0.058-0.014,0.072c-0.13,1.89,0.519,3.75,1.809,5.139c1.296,1.396,3.115,2.19,5.021,2.19h30.007
	c3.181,0,5.843-2.469,6.079-5.641c0.459-6.198,1.21-16.308,1.21-16.308l4.089-55.119h16.318c2.318,24.236,5.188,54.237,5.224,54.614
	c-0.517,0.43-8.227,6.849-12.18,10.138c-1.584,1.319-2.501,3.277-2.501,5.337c0,1.851,0.736,3.627,2.045,4.935
	c1.308,1.309,3.084,2.045,4.935,2.045h29.968c1.615,0,3.165-0.643,4.308-1.785c1.141-1.143,1.785-2.692,1.785-4.307v-15.932V417.1
	h53.032c3.585,0,6.514-2.928,6.514-6.512v-5.326h12.409c0.548,0,0.999-0.45,0.999-0.999c0-0.547-0.45-0.999-0.999-0.999H509.3
	h-12.395v-32.158c0.017-0.105,0.017-0.212,0-0.316v-4.312c0-3.584-2.93-6.511-6.514-6.511h-15.709v-16.184
	c0-1.766-0.702-3.462-1.951-4.71s-2.944-1.951-4.711-1.951h-1.584v-12.433c0.018-0.108,0.018-0.218,0-0.326V270.29
	c0-1.185-0.17-2.333-0.483-3.421c-0.007-0.027-10.495-39.166-15.665-58.461c-1.774-6.62-7.784-11.232-14.638-11.232h-27.562
	l-1.535-22.488c2.548-0.564,4.711-2.487,5.43-5.172c0.55-2.051,0.143-4.136-0.934-5.794c0.171-0.441,1.684-4.362,3.408-8.833
	c2.286-5.928-0.494-12.533-6.195-15.203C405.559,132.465,398.762,127.63,391.132,127.408L391.132,127.408L391.132,127.408z
	 M502.706,128.397c-0.547,0.008-0.992,0.464-0.985,1.013v2.092h-2.091h-0.014c-0.547,0-0.999,0.451-0.999,0.999
	c0,0.548,0.451,1,0.999,1c0.005,0,0.01-0.001,0.014-0.001h2.091v2.107c0,0.548,0.45,0.999,0.999,0.999s0.999-0.45,0.999-0.999
	v-0.014V133.5h2.093c0.005,0,0.009,0.001,0.014,0.001c0.548,0,0.999-0.451,0.999-1c0-0.547-0.45-0.999-0.999-0.999h-0.014h-2.093
	v-2.092v-0.014c0-0.548-0.45-0.999-0.999-0.999L502.706,128.397L502.706,128.397z M391.096,129.404
	c6.925,0.207,13.078,4.639,15.421,11.259c0.086,0.244,0.263,0.444,0.493,0.56h0.002c0.02,0.01,0.041,0.02,0.062,0.029
	c5.045,2.107,7.485,7.819,5.517,12.92c-1.538,3.989-2.612,6.772-3.039,7.88c-0.763-0.621-1.662-1.099-2.671-1.369
	c-0.896-0.24-1.802-0.3-2.677-0.201l-4.785-12.026c-0.151-0.382-0.523-0.632-0.934-0.63c-0.031,0.001-0.063,0.003-0.094,0.006
	l-32.749,3.316c-0.532,0.055-0.932,0.527-0.895,1.062c0,0,0.382,5.594,0.542,7.937c-2.261-1.1-6.878-3.708-11.537-8.593l7.545-6.76
	c0.212-0.189,0.334-0.46,0.334-0.744c0-0.324-0.158-0.627-0.421-0.814c0,0-4.901-3.631-6.524-11.993
	c1.385-0.072,20.824-1.085,35.014-1.824C390.169,129.395,390.635,129.39,391.096,129.404L391.096,129.404z M177.023,130.855
	c0.895-0.038,1.807,0.013,2.726,0.158c13.132,2.078,30.079,4.76,30.853,4.883c1.033,4.404,0.249,7.658-0.849,9.845
	c-0.86,1.714-1.852,2.749-2.3,3.164h-15.518c-0.399,0-0.761,0.239-0.919,0.605l-4.51,10.528c-0.39,0.073-0.778,0.167-1.162,0.308
	c-3.726,1.371-5.651,5.536-4.28,9.263v0.002c0.088,0.237,0.186,0.466,0.295,0.688l-12.694,7.405
	c-0.488-1.081-5.557-12.302-9.634-21.333c-2.279-5.048-0.25-10.974,4.646-13.561c0.088-0.047,0.169-0.106,0.24-0.176v-0.002
	c0.146-0.144,0.243-0.33,0.28-0.53C165.333,135.689,170.759,131.118,177.023,130.855L177.023,130.855z M75.166,130.982h-0.014
	c-0.548,0-0.999,0.45-0.999,0.999c0,0.548,0.45,0.999,0.999,0.999h4.815c0.548,0,0.999-0.45,0.999-0.999
	c0-0.548-0.45-0.999-0.999-0.999h-0.014H75.166z M116.895,130.982h-0.014c-0.548,0-0.999,0.45-0.999,0.999
	c0,0.548,0.45,0.999,0.999,0.999h4.813c0.548,0,0.999-0.45,0.999-0.999c0-0.548-0.45-0.999-0.999-0.999h-0.014H116.895z
	 M483.599,131.415h0.281c0.436,0,0.858,0.175,1.169,0.485c0.31,0.309,0.483,0.728,0.483,1.167v0.004
	c0,0.438-0.173,0.858-0.483,1.169c-0.311,0.31-0.731,0.483-1.169,0.483h-0.281V131.415L483.599,131.415z M454.24,137.572h21.197
	v3.183c-0.019,0.109-0.019,0.221,0,0.33v0.517h-1.559H454.24V137.572z M407.846,139.408l0.06,0.03l0.024,0.027
	C407.898,139.451,407.878,139.422,407.846,139.408L407.846,139.408L407.846,139.408z M162.745,141.043
	c-0.1,0.053-0.157,0.152-0.255,0.207l0.015-0.029L162.745,141.043z M451.684,143.599h1.389c0.108,0.018,0.218,0.018,0.326,0h19.48
	v4.028h-18.115c-0.056-0.009-0.113-0.014-0.169-0.014c-0.049,0.001-0.097,0.006-0.145,0.014h-2.767L451.684,143.599L451.684,143.599
	z M474.877,143.599h1.391c0.108,0.018,0.218,0.018,0.326,0h19.48v4.028h-21.197V143.599z M111.473,144.032L111.473,144.032
	c-0.549,0-1,0.451-1,0.999c0,0.271,0.11,0.53,0.304,0.718l3.385,3.383c0.188,0.196,0.448,0.307,0.72,0.307
	c0.548,0,0.999-0.45,0.999-0.999c0-0.272-0.111-0.532-0.307-0.72l-3.385-3.383C112.002,144.143,111.744,144.033,111.473,144.032
	L111.473,144.032z M85.343,144.034c-0.259,0.008-0.505,0.117-0.686,0.303l-3.385,3.383c-0.196,0.188-0.307,0.448-0.307,0.72
	c0,0.548,0.45,0.999,0.999,0.999c0.272,0,0.532-0.111,0.72-0.307l3.385-3.383c0.194-0.188,0.303-0.446,0.303-0.716
	c0-0.548-0.451-0.999-0.999-0.999L85.343,144.034L85.343,144.034z M93.296,149.054h10.168v3.609c0,0.264-0.104,0.515-0.291,0.702
	s-0.438,0.291-0.702,0.291h-8.182c-0.264,0-0.515-0.104-0.702-0.291s-0.291-0.439-0.291-0.702L93.296,149.054L93.296,149.054z
	 M455.609,149.625h21.197v4.03h-21.197V149.625z M478.804,149.625h18.103c0.107,0.018,0.217,0.018,0.324,0h1.4v4.03h-19.827V149.625
	z M397.844,149.895l4.75,11.938c0.042,0.179,0.133,0.343,0.262,0.473c0,0.002,0.001,0.003,0.002,0.004
	c0.016,0.017,0.033,0.033,0.051,0.049c0.287,0.267,0.706,0.34,1.067,0.188c0.767-0.158,1.578-0.152,2.39,0.066
	c1.105,0.296,2.02,0.929,2.688,1.75c0.035,0.061,0.076,0.119,0.123,0.172c0.925,1.234,1.31,2.855,0.878,4.467
	c-0.578,2.157-2.411,3.625-4.503,3.837c-0.014-0.001-0.029-0.001-0.043-0.002c-0.085-0.001-0.171,0.009-0.254,0.03
	c-0.522,0.023-1.058-0.033-1.592-0.176c-0.09-0.026-0.184-0.04-0.278-0.04c-0.548,0-0.999,0.451-0.999,0.999
	c0,0.458,0.315,0.861,0.76,0.97c0.471,0.127,0.945,0.203,1.414,0.233l1.527,22.326H381.84v-9.783
	c5.973-0.911,11.018-1.681,11.018-1.681c0.486-0.075,0.849-0.496,0.849-0.988c0-0.548-0.451-1-1-1c-0.051,0-0.102,0.004-0.152,0.011
	c0,0-5.109,0.78-11.706,1.787h-0.024c-0.101,0.002-0.202,0.019-0.299,0.051c-0.273,0.042-0.197,0.03-0.475,0.072
	c-2.806,0.428-5.661-0.338-7.875-2.112c-2.215-1.775-3.584-4.395-3.776-7.225h-0.002c-0.429-6.274-0.663-9.702-0.984-14.39
	c0.026-0.154,0.015-0.312-0.031-0.46c-0.181-2.655-0.55-8.053-0.575-8.422L397.844,149.895L397.844,149.895z M192.594,150.902
	h14.255c0.023,1.031,0.297,13.148,0.526,23.312c0.064,2.838-1.065,5.57-3.109,7.538c-2.045,1.968-4.818,2.99-7.651,2.819h-0.008
	c-3.609-0.191-9.298-0.764-9.298-0.764c-0.033-0.004-0.067-0.005-0.101-0.005c-0.547,0-0.999,0.45-0.999,0.999
	c0,0.51,0.392,0.943,0.899,0.994c0,0,2.842,0.284,5.805,0.52v10.864h-24.649l0.915-17.461l13.31-7.766
	c1.92,2.113,5.005,2.98,7.839,1.937c0.393-0.145,0.654-0.519,0.654-0.938c0-0.547-0.451-0.999-0.999-0.999
	c-0.118,0-0.235,0.021-0.346,0.062c-2.213,0.815-4.609,0.046-5.96-1.74c-0.055-0.141-0.142-0.267-0.254-0.369
	c-0.192-0.306-0.356-0.633-0.485-0.986c-0.998-2.712,0.383-5.701,3.094-6.699c0.365-0.134,0.733-0.215,1.102-0.265
	c0.112,0.007,0.224-0.005,0.332-0.036c0.375-0.026,0.746-0.019,1.111,0.034c0.047,0.006,0.094,0.01,0.142,0.01c0.548,0,1-0.451,1-1
	c0-0.494-0.368-0.918-0.857-0.989c-0.05-0.007-0.102-0.006-0.153-0.011L192.594,150.902L192.594,150.902z M96.061,155.653h4.64
	c-0.405,0.982-1.184,1.762-2.319,1.762h-0.004C97.243,157.414,96.466,156.633,96.061,155.653L96.061,155.653z M384.501,172.492
	c-0.543,0.007-0.986,0.455-0.986,0.999c0,0.005,0,0.01,0.001,0.015c0,2.644,2.166,4.809,4.81,4.809c2.643,0,4.808-2.165,4.808-4.809
	v-0.014c0-0.548-0.45-0.999-0.999-0.999c-0.547,0-0.999,0.45-0.999,0.999v0.014c0,1.563-1.248,2.812-2.811,2.812
	c-1.563,0-2.813-1.248-2.813-2.812v-0.015c0-0.548-0.451-1-0.999-1C384.51,172.491,384.505,172.491,384.501,172.492z
	 M145.329,199.176h73.738c6.761,0,12.778,4.257,15.029,10.632c5.869,16.628,16.144,45.741,16.144,45.741
	c0.045,0.126,0.115,0.243,0.205,0.342l31.243,34.046l-13.468,13.219c-15.234-15.432-34.267-34.712-34.267-34.712
	c-0.994-1.008-1.735-2.162-2.231-3.397c-0.003-0.005-0.005-0.011-0.008-0.017l-9.182-21.718c-0.019-0.06-0.043-0.117-0.073-0.172
	l-4.002-9.465c-0.156-0.381-0.53-0.628-0.941-0.622c-0.542,0.009-0.984,0.456-0.984,0.999c0,0.139,0.029,0.276,0.085,0.403
	l3.965,9.379l-0.033,68.507h-80.053v-11.886c0.016-0.103,0.016-0.208,0-0.311V229.21v-0.014c0-0.548-0.451-0.999-0.999-0.999h-0.016
	c-0.547,0.009-0.991,0.465-0.983,1.013v15.317l-5.95,14.587c-0.138,0.338-0.081,0.725,0.15,1.009l5.8,7.112v30.4l-25.793-29.372
	c-2.539-2.891-3.168-6.792-2.002-10.183c0-0.001,0.001-0.003,0.002-0.004c0,0,9.268-27.368,15.242-45.006
	C128.764,204.762,136.556,199.176,145.329,199.176L145.329,199.176z M355.056,199.176h18.418v113.163h-18.199v-51.835
	c0.006-0.06,0.006-0.12,0-0.18v-23.94v-0.015c0-0.548-0.45-1-0.999-1c-0.005,0-0.01,0.001-0.015,0.001
	c-0.542,0.008-0.984,0.456-0.984,0.999v23.924l-3.599,13.441c-0.01,0.025-0.018,0.051-0.026,0.078
	c-0.619,2.317-2.038,4.426-4.18,5.878c0,0-20.598,13.954-37.548,25.437l-11.711-14.958l33.893-24.808
	c0.199-0.145,0.337-0.359,0.389-0.599c0,0,7.679-36.231,11.691-55.159C343.475,203.517,348.835,199.176,355.056,199.176
	L355.056,199.176z M375.471,199.176h8.214l2.599,7.062l-4.896,64.326c-0.021,0.269,0.069,0.535,0.248,0.737l8.827,9.988
	c0.189,0.215,0.461,0.338,0.748,0.338c0.286,0,0.558-0.123,0.748-0.338l8.827-9.988c0.179-0.202,0.268-0.468,0.248-0.737
	l-4.897-64.326l2.599-7.062h13.866v89.798h-37.131L375.471,199.176L375.471,199.176z M385.813,199.176h10.794l-2.179,5.923h-6.435
	L385.813,199.176z M414.599,199.176h21.05c5.96,0,11.166,3.996,12.709,9.752c5.172,19.301,15.671,58.48,15.671,58.48
	c0.001,0.006,0.002,0.012,0.004,0.017c0.263,0.91,0.406,1.872,0.406,2.868v53.232h-18.711l-1.871-51.303
	c-0.004-0.092-0.02-0.184-0.049-0.271l-6.449-19.812v-15.755v-0.014c0-0.548-0.451-0.999-0.999-0.999s-0.999,0.45-0.999,0.999
	v75.969h-20.762L414.599,199.176L414.599,199.176z M388.22,207.096h5.98l4.81,63.198l-7.801,8.825l-7.799-8.825L388.22,207.096
	L388.22,207.096z M222.581,248.558l7.288,17.235c0.592,1.472,1.48,2.856,2.663,4.053c0,0,19.435,19.688,34.835,35.287
	c0.07,0.105,0.159,0.196,0.263,0.268c1.55,1.57,2.051,2.076,3.518,3.562c0.057,0.904,0.332,1.802,0.872,2.599
	c1.636,2.415,3.873,5.718,5.692,8.402c1.699,2.508,4.832,3.485,7.583,2.591c2.41,1.013,5.293,0.557,7.26-1.385v-0.002
	c2.284-2.255,5.089-5.024,7.159-7.067c0.53-0.523,0.915-1.138,1.175-1.793c3.067-2.078,4.061-2.751,7.384-5.002
	c0-0.001,0.001-0.001,0.002-0.002c17.247-11.684,38.32-25.958,38.32-25.958c2.446-1.657,4.06-4.069,4.843-6.701
	c0.068-0.096,0.118-0.202,0.149-0.315l1.691-6.31v45.152c-0.018,0.112-0.018,0.226,0.002,0.338l1.089,89.758H222.266
	L222.581,248.558L222.581,248.558z M138.499,249.819v14.257l-3.876-4.754L138.499,249.819L138.499,249.819z M65.283,254.06
	c-0.541,0.009-0.983,0.457-0.983,0.999v7.383c0,0.547,0.45,0.999,0.999,0.999c0.548,0,0.999-0.451,0.999-0.999v-0.015v-7.352v-0.016
	c0-0.547-0.45-0.999-0.999-0.999L65.283,254.06L65.283,254.06z M437.359,258.594l4.505,13.84l1.895,51.966
	c-0.013,0.106-0.009,0.214,0.012,0.319l0.164,4.477l-4.284,8.371c-0.85,0.324-1.632,0.817-2.292,1.465V258.594L437.359,258.594z
	 M52.684,259.286c-0.547,0.001-0.997,0.451-0.997,0.999c0,0.27,0.109,0.528,0.303,0.716l5.199,5.201
	c0.188,0.196,0.448,0.307,0.72,0.307c0.548,0,0.999-0.45,0.999-0.999c0-0.272-0.111-0.532-0.307-0.72l-5.199-5.201
	C53.213,259.395,52.955,259.286,52.684,259.286z M77.886,259.286c-0.26,0.008-0.506,0.116-0.687,0.303l-5.201,5.201
	c-0.187,0.187-0.293,0.441-0.293,0.706c0,0.548,0.451,1,1,1c0.265,0,0.519-0.106,0.707-0.294l5.199-5.201
	c0.194-0.189,0.303-0.446,0.303-0.716c0-0.548-0.45-1-0.999-1C77.905,259.285,77.895,259.286,77.886,259.286z M47.473,271.901
	h-0.014c-0.547,0-0.999,0.451-0.999,0.999s0.451,1,0.999,1c0.005,0,0.01,0,0.014-0.001h7.355c0.004,0.001,0.009,0.001,0.014,0.001
	c0.547,0,0.999-0.451,0.999-1c0-0.547-0.451-0.999-0.999-0.999h-0.014H47.473z M75.773,271.901h-0.014
	c-0.547,0-0.999,0.451-0.999,0.999s0.451,1,0.999,1c0.005,0,0.01,0,0.014-0.001h7.355c0.004,0.001,0.009,0.001,0.014,0.001
	c0.547,0,0.999-0.451,0.999-1c0-0.547-0.451-0.999-0.999-0.999h-0.014H75.773z M57.875,279.297
	c-0.259,0.008-0.505,0.116-0.686,0.303l-5.199,5.2c-0.196,0.188-0.308,0.448-0.308,0.72c0,0.547,0.451,0.999,1,0.999
	c0.272,0,0.531-0.111,0.72-0.307l5.199-5.201c0.194-0.189,0.303-0.447,0.303-0.717c0-0.547-0.45-0.999-0.999-0.999
	C57.895,279.296,57.885,279.296,57.875,279.297L57.875,279.297z M72.694,279.297c-0.547,0-0.999,0.45-0.999,0.999
	c0,0.27,0.11,0.527,0.303,0.716l5.201,5.201c0.189,0.196,0.448,0.307,0.72,0.307c0.548,0,0.999-0.45,0.999-0.999
	c0-0.272-0.111-0.532-0.307-0.72l-5.199-5.201C73.224,279.406,72.965,279.296,72.694,279.297z M65.284,282.359
	c-0.541,0.009-0.983,0.456-0.983,0.999v7.382c0,0.548,0.45,0.999,0.999,0.999c0.548,0,0.999-0.45,0.999-0.999v-0.014v-7.352v-0.016
	c0-0.547-0.45-0.999-0.999-0.999H65.284z M375.471,290.97h8.674v9.816h-8.674V290.97z M386.143,290.97h10.677v9.816h-10.677V290.97z
	 M398.818,290.97h13.784v9.816h-13.784V290.97z M294.6,291.348l11.666,14.902c-2.264,1.534-2.904,1.968-5.055,3.424
	c-0.136-1.034-0.566-2.037-1.318-2.857c-2.333-2.541-5.581-6.081-7.448-8.115c-0.635-0.692-0.804-1.686-0.431-2.549
	c0.781-1.808,1.726-3.997,1.838-4.257L294.6,291.348L294.6,291.348z M283.041,291.409l1.281,1.396
	c0.285,0.31,0.736,0.408,1.124,0.244c2.517-1.06,4.786-0.992,6.116-0.885c-0.377,0.871-0.795,1.839-1.381,3.197
	c-0.682,1.581-0.37,3.423,0.794,4.691c1.867,2.035,5.115,5.575,7.448,8.117h-0.002c1.19,1.295,1.142,3.271-0.109,4.507
	c-2.07,2.043-4.877,4.814-7.161,7.069c-0.931,0.919-2.142,1.357-3.348,1.338c0.587-0.576,0.992-1.318,1.142-2.138
	c0.192-1.059-0.05-2.151-0.671-3.029c-2.205-3.115-5.952-8.403-8.17-11.537v-0.002c-0.627-0.886-1.591-1.481-2.667-1.644h-0.002
	c-1.074-0.164-2.169,0.119-3.033,0.78v-0.002c-0.398,0.305-0.815,0.624-1.227,0.94c-0.735,0.562-1.261,1.293-1.606,2.093
	c-0.825-0.837-1.092-1.107-1.943-1.969L283.041,291.409L283.041,291.409z M375.471,302.784h37.131v10.554
	c0,0.547,0.45,0.999,0.999,0.999h21.761v45.631H419.65c-3.584,0-6.511,2.928-6.511,6.512v4.323c-0.014,0.095-0.014,0.192,0,0.287
	v39.499c0,3.583,2.927,6.511,6.511,6.511h15.712v42.209h-24.408c-0.062-0.647-11.424-119.441-12.434-129.996
	c-0.187-1.957-1.846-3.465-3.811-3.465h-6.172h-0.014c-0.548,0-0.999,0.451-0.999,0.999s0.45,0.999,0.999,0.999h2.675l-9.75,131.463
	h-24.401l-1.758-144.972h19.186c0.547,0,0.999-0.451,0.999-0.999v-10.554H375.471z M276.731,304.69
	c0.135-0.007,0.27-0.001,0.405,0.019h0.002c0.537,0.081,1.018,0.379,1.334,0.825c2.218,3.135,5.965,8.423,8.169,11.537
	c0.313,0.44,0.432,0.986,0.336,1.518h0.002c-0.096,0.53-0.403,0.998-0.848,1.3h-0.002v0.002c-0.093,0.063-0.191,0.127-0.291,0.196
	c-2.142,1.449-5.024,0.895-6.475-1.246c-1.819-2.684-4.054-5.988-5.69-8.403h-0.002c-0.971-1.432-0.658-3.347,0.716-4.399v-0.002
	c0.41-0.315,0.829-0.634,1.227-0.938C275.938,304.851,276.33,304.71,276.731,304.69L276.731,304.69z M530.037,306.951
	c-0.547,0.009-0.991,0.465-0.984,1.013v7.368c0,0.548,0.451,0.999,0.999,0.999c0.548,0,0.999-0.45,0.999-0.999v-0.014v-7.354v-0.014
	c0-0.547-0.45-0.999-0.999-0.999H530.037z M517.437,312.177c-0.548,0-0.999,0.45-0.999,0.999c0,0.27,0.109,0.527,0.302,0.715
	l5.199,5.2c0.189,0.196,0.449,0.307,0.721,0.307c0.547,0,0.999-0.451,0.999-0.999c0-0.272-0.111-0.532-0.308-0.721l-5.199-5.199
	C517.965,312.286,517.706,312.177,517.437,312.177L517.437,312.177z M542.637,312.177c-0.26,0.007-0.505,0.116-0.687,0.302
	l-5.199,5.199c-0.196,0.189-0.307,0.449-0.307,0.721c0,0.547,0.451,0.999,0.999,0.999c0.272,0,0.532-0.111,0.72-0.307l5.2-5.2
	c0.193-0.188,0.303-0.446,0.303-0.716c0-0.547-0.451-0.999-1-0.999C542.657,312.176,542.647,312.176,542.637,312.177
	L542.637,312.177z M140.497,314.337h80.048l-0.447,144.972H195.7l-10.816-132.544c-0.042-0.515-0.478-0.918-0.997-0.917h-8.852
	h-0.014c-0.548,0-0.999,0.45-0.999,0.999s0.45,0.999,0.999,0.999h2.456l-12.572,131.463h-24.408L140.497,314.337L140.497,314.337z
	 M512.225,324.791c-0.005-0.001-0.01-0.001-0.014-0.001c-0.548,0-0.999,0.451-0.999,1c0,0.547,0.45,0.999,0.999,0.999h7.382
	c0.548,0,0.999-0.451,0.999-0.999s-0.45-1-0.999-1c-0.005,0-0.009,0-0.014,0.001H512.225L512.225,324.791z M540.524,324.791
	c-0.005-0.001-0.01-0.001-0.014-0.001c-0.548,0-1,0.451-1,1c0,0.547,0.451,0.999,1,0.999h7.382c0.548,0,0.999-0.451,0.999-0.999
	s-0.45-1-0.999-1c-0.005,0-0.009,0-0.014,0.001H540.524L540.524,324.791z M445.799,325.522h18.639v12.434
	c-0.018,0.108-0.018,0.217,0,0.324v4.042c0,2.588-2.078,4.664-4.666,4.664H449.64c-1.735,0-3.15-1.338-3.244-3.072
	c-0.018-0.324-0.02-0.365-0.038-0.692c0.012-0.107,0.006-0.216-0.017-0.321c-0.12-2.204-0.247-4.535-0.254-4.671
	c0.004-0.036,0.006-0.071,0.006-0.107c0-0.509-0.391-0.942-0.898-0.994h-0.011c-0.035-0.004-0.069-0.006-0.104-0.006h-2.959
	l3.708-7.249c0.078-0.152,0.116-0.321,0.11-0.491L445.799,325.522L445.799,325.522z M169.657,325.848h-0.014
	c-0.547,0-0.999,0.451-0.999,0.999s0.451,0.999,0.999,0.999h1.125c0.548,0,0.999-0.45,0.999-0.999c0-0.547-0.45-0.999-0.999-0.999
	h-0.014H169.657L169.657,325.848z M382.055,325.848h-0.015c-0.547,0-0.999,0.451-0.999,0.999s0.451,0.999,0.999,0.999h1.912
	c0.547,0,0.999-0.45,0.999-0.999c0-0.547-0.451-0.999-0.999-0.999h-0.015H382.055L382.055,325.848z M179.485,327.845h3.483
	l6.155,75.42h-16.85L179.485,327.845z M393.202,327.845h1.506c0.953,0,1.733,0.71,1.824,1.658
	c0.997,10.423,3.883,40.618,7.053,73.762h-15.979L393.202,327.845z M522.626,332.188c-0.26,0.008-0.506,0.116-0.687,0.303
	l-5.199,5.199c-0.196,0.188-0.307,0.448-0.307,0.72c0,0.548,0.45,0.999,0.999,0.999c0.272,0,0.532-0.111,0.72-0.307l5.199-5.199
	c0.194-0.189,0.303-0.446,0.303-0.717c0-0.547-0.451-0.999-0.999-0.999C522.645,332.187,522.636,332.188,522.626,332.188
	L522.626,332.188z M537.446,332.188c-0.547,0.001-0.997,0.451-0.997,0.999c0,0.27,0.109,0.527,0.302,0.716l5.199,5.199
	c0.189,0.196,0.449,0.307,0.721,0.307c0.548,0,0.999-0.45,0.999-0.999c0-0.272-0.111-0.532-0.307-0.72l-5.2-5.199
	C537.975,332.297,537.716,332.187,537.446,332.188z M530.037,335.25c-0.547,0.009-0.991,0.465-0.984,1.013v7.368
	c0,0.548,0.451,0.999,0.999,0.999c0.548,0,0.999-0.45,0.999-0.999v-0.014v-7.354v-0.014c0-0.547-0.45-0.999-0.999-0.999H530.037z
	 M442.023,339.12h2.112c0.025,0.469,0.102,1.867,0.164,2.996h-1.529c-1.322,0-2.415,1.094-2.415,2.415v15.436h-2.996v-16.183
	c0-1.237,0.49-2.424,1.365-3.299C439.599,339.612,440.786,339.12,442.023,339.12L442.023,339.12z M466.436,339.12h1.584
	c1.238,0,2.424,0.491,3.299,1.365c0.874,0.875,1.365,2.061,1.365,3.299v16.183h-2.996v-15.436c0-1.321-1.093-2.415-2.415-2.415
	h-0.837V339.12L466.436,339.12z M442.77,344.114h1.642c0.197,2.729,2.483,4.869,5.229,4.869h10.132c3.045,0,5.622-2.068,6.41-4.869
	h1.091c0.242,0,0.418,0.175,0.418,0.418v15.436h-25.338v-15.436C442.353,344.289,442.527,344.114,442.77,344.114L442.77,344.114z
	 M419.649,361.966h70.742c2.503,0,4.517,2.012,4.517,4.514v3.889l-28.709,16.078v-3.404c0-1.298-1.075-2.37-2.372-2.37h-17.61
	c-1.297,0-2.372,1.072-2.372,2.37v3.404l-28.709-16.076v-3.891C415.136,363.977,417.146,361.966,419.649,361.966L419.649,361.966z
	 M415.136,372.66l28.709,16.078v5.285c0,1.298,1.074,2.372,2.372,2.372h17.61c1.298,0,2.372-1.074,2.372-2.372v-5.285l28.709-16.078
	v37.929c0,2.502-2.014,4.514-4.517,4.514h-70.742c-2.502,0-4.514-2.012-4.514-4.514L415.136,372.66L415.136,372.66z
	 M446.217,382.671h17.61c0.219,0,0.375,0.155,0.375,0.373v10.979c0,0.218-0.157,0.375-0.375,0.375h-17.61
	c-0.218,0-0.375-0.157-0.375-0.375v-10.979C445.842,382.826,445.998,382.671,446.217,382.671z M89.14,391.004
	c6.418,7.702,10.352,17.542,10.352,28.345c0,1.924-0.125,3.818-0.363,5.677c-0.018,0.072-0.029,0.145-0.031,0.219
	c-0.72,5.417-2.424,10.519-4.916,15.138h-4.044V405.31v-0.016c0-0.548-0.45-0.999-0.999-0.999h-0.015
	c-0.542,0.009-0.984,0.456-0.984,0.999v35.088h-4.046c-2.49-4.615-4.193-9.712-4.914-15.125c0-0.083-0.012-0.165-0.033-0.246
	c-0.236-1.854-0.361-3.743-0.361-5.663C78.787,408.546,82.72,398.706,89.14,391.004z M46.674,403.265h-0.015
	c-0.547,0-0.999,0.45-0.999,0.999s0.451,0.999,0.999,0.999h2.479c0.547,0,0.999-0.45,0.999-0.999s-0.451-0.999-0.999-0.999h-0.014
	H46.674z M514.597,403.265h-0.014c-0.548,0-0.999,0.45-0.999,0.999s0.45,0.999,0.999,0.999h6.221c0.548,0,0.999-0.45,0.999-0.999
	s-0.45-0.999-0.999-0.999h-0.014H514.597L514.597,403.265z M526.087,403.265h-0.014c-0.548,0-1,0.45-1,0.999s0.451,0.999,1,0.999
	h1.848c0.548,0,0.999-0.45,0.999-0.999s-0.45-0.999-0.999-0.999h-0.014H526.087z M55.555,415.785
	c7.89,0.768,15.576,4.034,21.683,9.965c0.72,5.204,2.313,10.127,4.611,14.632h-0.287l-17.311-17.313
	c-0.188-0.194-0.447-0.303-0.718-0.303h-0.001c-0.548,0-0.999,0.451-0.999,0.999c0,0.271,0.11,0.53,0.304,0.718l15.901,15.899
	H68.703c-0.97-0.787-1.914-1.626-2.819-2.53C59.719,431.686,56.339,423.84,55.555,415.785L55.555,415.785z M122.724,415.785
	c-0.783,8.056-4.164,15.903-10.331,22.069c-0.903,0.903-1.846,1.741-2.817,2.528H99.541l15.901-15.899
	c0.194-0.188,0.303-0.446,0.303-0.716c0-0.548-0.45-0.999-0.999-0.999h-0.031c-0.26,0.007-0.506,0.115-0.687,0.301l-17.311,17.313
	H96.43c2.298-4.506,3.891-9.43,4.611-14.632C107.148,419.819,114.833,416.552,122.724,415.785L122.724,415.785z M490.919,448.374
	c-0.269,0.013-0.52,0.135-0.698,0.336c-7.219,8.18-11.602,18.93-11.602,30.684c0,1.147,0.053,2.281,0.135,3.408
	c-6.493-5.591-14.428-8.65-22.492-9.155c-0.034-0.002-0.067-0.002-0.1,0c-0.533,0.02-0.962,0.464-0.962,0.998
	c0,0.021,0.001,0.041,0.002,0.061c0.56,8.959,4.263,17.765,11.101,24.603c0.386,0.385,0.783,0.75,1.181,1.116h-7.683h-0.014
	c-0.547,0-0.999,0.451-0.999,0.999s0.451,0.999,0.999,0.999h62.246c0.547,0,0.999-0.45,0.999-0.999c0-0.547-0.451-0.999-0.999-0.999
	h-0.015h-7.565c0.398-0.366,0.795-0.73,1.181-1.116c6.839-6.838,10.543-15.644,11.104-24.603c0.001-0.021,0.002-0.042,0.002-0.063
	c0-0.535-0.431-0.981-0.968-0.998c-0.031-0.001-0.062,0-0.093,0.002c-8.063,0.504-15.999,3.564-22.491,9.153
	c0.082-1.127,0.133-2.259,0.133-3.406c0-11.754-4.386-22.504-11.603-30.684C491.517,448.482,491.222,448.358,490.919,448.374
	L490.919,448.374z M490.97,451.049c6.418,7.702,10.354,17.541,10.354,28.345c0,1.918-0.127,3.807-0.364,5.661
	c-0.021,0.081-0.032,0.165-0.033,0.25c-0.721,5.41-2.424,10.505-4.914,15.12h-4.045v-35.072v-0.014c0-0.547-0.451-0.999-0.999-0.999
	h-0.014c-0.548,0.008-0.993,0.464-0.985,1.013v35.072h-4.044c-2.477-4.59-4.174-9.658-4.901-15.038
	c0.008-0.131-0.01-0.262-0.052-0.385c-0.232-1.837-0.358-3.708-0.358-5.608C480.616,468.59,484.55,458.751,490.97,451.049
	L490.97,451.049z M140.497,461.306h24.956c0.363,0.302,8.312,6.92,12.306,10.244c1.129,0.941,1.783,2.333,1.783,3.802
	c0,1.321-0.524,2.588-1.459,3.523s-2.201,1.459-3.523,1.459h-29.968c-1.087,0-2.129-0.431-2.897-1.2
	c-0.769-0.769-1.198-1.809-1.198-2.895V461.306L140.497,461.306z M195.862,461.306h24.89c0.364,0.284,9.399,7.326,13.521,10.538
	c1.014,0.791,1.649,1.968,1.754,3.248v0.002c0.11,1.349-0.349,2.682-1.266,3.678c-0.918,0.995-2.21,1.562-3.564,1.562h-30.004
	c-2.142,0-3.909-1.629-4.083-3.763C196.636,470.785,195.959,462.502,195.862,461.306L195.862,461.306z M356.402,461.306h24.894
	c-0.088,1.187-0.7,9.445-1.13,15.235c-0.16,2.147-1.931,3.792-4.085,3.792h-30.007c-1.35,0-2.637-0.562-3.556-1.553
	c-0.919-0.989-1.385-2.315-1.285-3.664v-0.002c0.096-1.298,0.734-2.493,1.759-3.296C347.105,468.596,356.04,461.59,356.402,461.306z
	 M410.405,461.306h24.957v14.933c0,1.086-0.431,2.126-1.2,2.895c-0.77,0.768-1.81,1.2-2.895,1.2h-29.968
	c-1.321,0-2.588-0.524-3.523-1.459c-0.935-0.935-1.459-2.201-1.459-3.523c0-1.469,0.652-2.863,1.781-3.802
	C402.093,468.225,410.043,461.607,410.405,461.306L410.405,461.306z M457.385,475.827c7.888,0.768,15.575,4.032,21.682,9.961
	c0.72,5.205,2.313,10.13,4.612,14.636h-0.287l-17.311-17.311c-0.189-0.194-0.448-0.303-0.718-0.302
	c-0.547,0.001-0.997,0.451-0.997,0.999c0,0.269,0.109,0.527,0.302,0.715l15.899,15.899h-10.036c-0.97-0.787-1.913-1.625-2.816-2.528
	C461.549,491.73,458.169,483.883,457.385,475.827L457.385,475.827z M524.555,475.827c-0.783,8.056-4.166,15.903-10.332,22.069
	c-0.903,0.903-1.846,1.741-2.816,2.528h-10.036l15.9-15.899c0.194-0.188,0.304-0.446,0.304-0.716c0-0.547-0.451-0.999-1-0.999
	c-0.009,0-0.019,0-0.029,0.001c-0.26,0.007-0.506,0.116-0.687,0.302l-17.313,17.311h-0.285c2.299-4.507,3.892-9.432,4.611-14.636
	C508.979,479.859,516.665,476.595,524.555,475.827L524.555,475.827z"></path>
</svg>