<svg width="300" height="57" xmlns="http://www.w3.org/2000/svg">
 <g>
  <title>Layer 1</title>
  <path opacity="0.88" stroke="#000" id="svg_3" d="m65.61841,16.41111c-2.17246,2.90944 -11.52817,6.59966 -12.73485,6.59966l-10.2556,0c-1.70207,0 -4.2654,0.40272 -5.47208,1.32596c0.13862,0.14794 0.27724,0.29588 0.41132,0.44655c0.92716,1.03831 3.09509,2.50124 5.01304,2.50124c0.90217,0 1.64299,-0.31505 2.27246,-0.96981c2.67695,-2.75876 4.0677,-3.08203 4.87442,-3.08203c0.9567,0 1.77933,0.52874 2.26337,1.45472c0.90898,1.71498 0.24088,3.9587 -0.44086,5.71751c-1.63162,4.17513 -6.94917,8.68722 -12.7144,8.68722c-0.00454,0 -0.00454,0 -0.00909,0c-0.80445,0 -1.59299,-0.0904 -2.34745,-0.27122l0,8.90639c0,2.03278 2.34745,6.93937 9.46933,6.93937s8.98757,-10.1392 8.98757,-11.88432l0,-12.361c5.06758,-3.20258 10.25333,-4.94495 12.73485,-10.67068c2.33382,-5.38055 0.11817,-6.249 -2.05203,-3.33956zm-15.92992,12.94728c1.80887,-4.65455 -0.12044,-4.65455 -3.49959,-1.16432s-8.32855,0.28765 -10.01699,-1.60266c-1.68844,-1.88757 -3.37687,-3.34229 -6.39469,-3.1971c-3.01783,0.1452 -10.13517,-0.44107 -14.2415,-1.60265c-4.10178,-1.16433 -11.12368,-8.21876 -11.70315,-6.39693c-0.60448,1.89031 0.47949,3.19983 2.65423,6.39693c2.1702,3.20257 11.53272,7.61056 11.53272,7.61056s0,9.45979 0,13.38561c0,3.93131 6.75602,9.8899 10.25333,9.8899s6.15381,-2.90944 6.15381,-4.94769l0,-12.361c5.7925,3.64365 13.45295,-1.35336 15.26183,-6.01065zm-3.63593,-10.38577c3.96316,0 7.17869,-3.87377 7.17869,-8.6516c0,-4.78058 -3.21553,-8.65435 -7.17869,-8.65435s-7.17643,3.87377 -7.17643,8.65435c0,4.77783 3.21326,8.6516 7.17643,8.6516zm-18.91367,0c3.96317,0 7.17642,-3.87377 7.17642,-8.6516c0,-4.78058 -3.21325,-8.65435 -7.17642,-8.65435c-3.96544,0 -7.17869,3.87377 -7.17869,8.65435c0,4.77783 3.21098,8.6516 7.17869,8.6516z" fill="#7AD6CA"/>
  <text xml:space="preserve" text-anchor="start" font-family="'Open Sans ExtraBold'" font-size="36" id="svg_4" y="38.78211" x="82.04405" stroke-width="0" stroke="#000" fill="#000000">College TPO</text>
  <path id="svg_5" d="m10.04412,31.7821" opacity="NaN" stroke-width="3" stroke="#000" fill="#ff7f00"/>
 </g>

</svg>