<?xml version="1.0" standalone="no"?>
<svg version="1.1" id="Layer_1" xmlns="http://www.w3.org/2000/svg" xmlns:xlink="http://www.w3.org/1999/xlink" x="0px" y="0px" viewBox="0 0 595.276 595.276" enable-background="new 0 0 595.276 595.276" xml:space="preserve">
<path id="color_x5F_5" fill="#FFD2BB" d="M250.954,386.354c0.008,0.018,0.013,0.037,0.021,0.054
	c1.243,2.799,1.939,5.792,2.068,8.819c0.928,3.245-0.036,7.252-1.667,10.107c-0.25,0.438-0.962,0.157-0.861-0.281
	c0.449-1.949,0.829-3.923,0.846-5.903c0-0.036-0.002-0.071-0.003-0.106c-0.117,0.066-0.233,0.131-0.35,0.189
	c0.045,2.635-0.806,5.432-2.032,7.578c-0.25,0.438-0.962,0.157-0.861-0.281c0.449-1.949,0.829-3.923,0.846-5.903
	c0.002-0.246-0.007-0.491-0.021-0.735c-0.004,0.001-0.008,0.001-0.013,0.002c-0.159,2.312-0.937,4.666-2.001,6.528
	c-0.25,0.438-0.962,0.157-0.861-0.281c0.449-1.949,0.829-3.923,0.846-5.903c0.001-0.108-0.005-0.215-0.008-0.323
	c-0.109-0.012-0.219-0.025-0.331-0.04c-0.257,2.069-0.98,4.125-1.931,5.789c-0.25,0.438-0.962,0.157-0.861-0.281
	c0.449-1.949,0.829-3.923,0.846-5.903c-1.909-3.713-3.234-7.236-1.105-10.946c0.017-0.029,0.03-0.059,0.047-0.088L250.954,386.354z
	 M176.713,503.419l4.096,3.139c0.963,0.738,2.131,1.158,3.343,1.203l3.519,0.129l1.191-1.183l0.463-0.459l-9.075-7.795l-0.375,0.527
	L176.713,503.419z M207.502,519.172l0.552,6.071l5.153-0.287c1.211-0.068,2.371-0.51,3.319-1.266l2.754-2.195l0.185-2.324H207.502z
	 M219.739,267.724c-0.231,1.474-0.374,3.036-0.405,4.581c0.288,0.297,0.578,0.591,0.861,0.894l1.933,0.163l0.63-7.472l0.387-4.594
	h2.292c5.475,0,9.913-4.438,9.913-9.913V233.75v-7.736h-14.656l-0.918,5.237l-2.724,1.401l-2.159,10.932h-1.854v-1.316
	c0-1.831-1.498-3.328-3.328-3.328c-1.831,0-3.328,1.498-3.328,3.328v2.322c0,1.283,0.737,2.399,1.806,2.955
	c0,1.103,0.144,2.171,0.389,3.199l-0.092,1.096l-0.63,7.476C212.141,261.693,216.07,264.459,219.739,267.724z M206.742,374.413
	l-7.041,3.056c-1.682,4.004,0.115,7.342,2.522,10.794c0.248,1.965,0.135,3.972-0.049,5.963c-0.042,0.448,0.702,0.631,0.891,0.164
	c0.72-1.776,1.162-3.911,1.14-5.995c0.113,0,0.224-0.002,0.333-0.005c0.017,0.106,0.037,0.212,0.051,0.319
	c0.248,1.965,0.135,3.972-0.049,5.963c-0.042,0.448,0.702,0.631,0.891,0.164c0.806-1.988,1.263-4.424,1.111-6.737
	c0.004-0.001,0.008-0.002,0.012-0.003c0.047,0.24,0.088,0.482,0.119,0.726c0.248,1.965,0.135,3.972-0.049,5.963
	c-0.042,0.448,0.702,0.631,0.891,0.164c0.928-2.29,1.398-5.176,1.001-7.781c0.107-0.073,0.214-0.153,0.321-0.234
	c0.005,0.035,0.012,0.07,0.017,0.105c0.249,1.965,0.135,3.972-0.049,5.963c-0.042,0.448,0.702,0.631,0.891,0.164
	c1.235-3.047,1.655-7.147,0.302-10.24c-0.521-2.92-1.583-5.73-3.133-8.294c-0.034-0.055-0.06-0.114-0.094-0.169
	C206.76,374.448,206.752,374.43,206.742,374.413z M503.422,519.142l0.222,2.32l2.789,2.15c0.96,0.741,2.127,1.164,3.339,1.213
	l5.157,0.205l0.455-6.079L503.422,519.142z M477.858,521.496l2.578,2.195c0.888,0.756,2.013,1.198,3.218,1.266l5.13,0.287
	l0.297-1.736l0.741-4.335h-11.963l0,0.81L477.858,521.496z M489.539,273.199c0.283-0.302,0.573-0.597,0.861-0.894
	c-0.032-1.545-0.175-3.108-0.405-4.581c3.669-3.264,7.599-6.032,11.883-8.408l-0.63-7.476l-0.092-1.096
	c0.245-1.028,0.389-2.096,0.389-3.199c1.07-0.555,1.806-1.672,1.806-2.955v-2.322c0-1.831-1.498-3.328-3.328-3.328
	s-3.328,1.498-3.328,3.328v1.316h-1.854l-2.159-10.932l-2.724-1.401l-0.918-5.237h-14.656v7.856v17.512
	c0,5.475,4.438,9.913,9.913,9.913h2.292l0.387,4.594l0.63,7.472L489.539,273.199z M425.492,526.521l4.639-1.052l6.386-10.13
	l-2.88-8.142l0,0v0l-1.815-1.035l-3.714-9.61l-8.621,4.85l4.979,7.62L425.492,526.521z M368.195,362.388
	c-1.078-1.055-2.177-2.09-3.331-3.068c-3.573,6.479-7.419,14.033-10.805,19.781c-2.788,1.268-5.305,3.026-7.429,5.189
	c-2.922,1.826-4.931,5.524-5.646,8.804c-0.11,0.503,0.622,0.777,0.845,0.375c0.992-1.785,2.053-3.541,3.394-5.054
	c0.024-0.027,0.05-0.052,0.075-0.079c0.044,0.13,0.088,0.259,0.136,0.382c-1.836,1.967-3.102,4.67-3.639,7.135
	c-0.11,0.503,0.622,0.777,0.845,0.375c0.992-1.785,2.053-3.541,3.394-5.054c0.167-0.188,0.341-0.368,0.519-0.543
	c0.003,0.003,0.006,0.006,0.008,0.01c-1.46,1.862-2.479,4.178-2.945,6.318c-0.11,0.503,0.622,0.777,0.845,0.375
	c0.992-1.785,2.053-3.541,3.394-5.054c0.073-0.083,0.151-0.16,0.227-0.24c0.091,0.066,0.183,0.131,0.278,0.196
	c-1.219,1.744-2.077,3.798-2.493,5.71c-0.11,0.503,0.622,0.777,0.845,0.375c0.992-1.785,2.053-3.541,3.394-5.054
	c3.249-1.231,6.119-2.63,7.569-5.417c0.404-0.777,0.51-1.658,0.334-2.489c2.269-2.718,4.473-5.219,6.599-7.589l-0.092-0.809
	C365.925,372.045,367.126,367.19,368.195,362.388z M387.26,523.588l1.14-8.561l-1.145-1.747l0.968-9.308h-9.728l0.908,8.506
	l-7.048,16.05l4.609,1.174L387.26,523.588z M391.882,287.585c-0.046-1.875-0.04-3.75,0.065-5.623
	c2.96-2.748,7.391-3.406,10.703-5.683l-0.806-11.965l-0.126,0.013c0.209-0.963,0.326-1.96,0.326-2.986l-2.608-2.076
	c-4.759-0.985-9.336-2.868-13.492-5.688c-4.749-3.223-9.132-7.478-11.629-12.502l2.181,24.198c0,5.589,4.562,10.107,7.94,10.107
	h3.57c0.665,0,1.315-0.062,1.955-0.152l0.46,6.829l0.38,5.642L391.882,287.585z M415.262,353.051
	c-0.97,0.52-1.889,1.115-2.775,1.754c-1.579,1.139-3.033,2.437-4.301,3.908c-2.797,2.013-4.56,5.833-5.06,9.153
	c-0.077,0.509,0.671,0.735,0.868,0.319c0.873-1.846,1.818-3.667,3.058-5.264c0.022-0.029,0.047-0.055,0.069-0.084
	c0.052,0.126,0.104,0.252,0.161,0.373c-1.704,2.083-2.791,4.862-3.167,7.357c-0.077,0.509,0.671,0.735,0.868,0.319
	c0.873-1.846,1.818-3.667,3.058-5.265c0.154-0.198,0.316-0.389,0.482-0.576c0.003,0.003,0.006,0.006,0.009,0.009
	c-1.336,1.953-2.201,4.331-2.528,6.496c-0.077,0.509,0.671,0.735,0.868,0.319c0.873-1.846,1.818-3.667,3.058-5.264
	c0.068-0.087,0.141-0.169,0.211-0.254c0.095,0.06,0.191,0.119,0.29,0.178c-1.103,1.82-1.825,3.925-2.116,5.86
	c-0.077,0.509,0.671,0.735,0.868,0.319c0.873-1.846,1.818-3.667,3.058-5.264c1.218-0.555,2.374-1.132,3.413-1.795
	c1.658-1.058,3.009-2.335,3.787-4.104c0.353-0.802,0.401-1.687,0.171-2.506c5.136-7.037,9.963-12.719,14.231-18.427
	c-2.864-2.831-5.831-5.592-9.088-8.006C421.613,339.306,418.266,347.095,415.262,353.051z M82.574,509.325l-2.128,6.014l6.386,10.13
	l4.639,1.052l1.027-17.499l4.979-7.62l-8.621-4.85l-3.714,9.61l-1.815,1.035v0l0,0L82.574,509.325z M128.563,515.026l1.14,8.561
	l10.296,6.115l4.609-1.174l-7.048-16.05l0.908-8.506h-9.728l0.968,9.308L128.563,515.026z M128.959,275.38h3.57
	c3.378,0,7.94-4.518,7.94-10.107l2.181-24.198c-2.497,5.024-6.88,9.279-11.629,12.502c-4.156,2.82-8.734,4.703-13.492,5.688
	l-2.608,2.076c0,1.026,0.117,2.023,0.326,2.986l-0.126-0.013l-0.806,11.965c3.312,2.278,7.744,2.936,10.703,5.683
	c0.105,1.872,0.111,3.748,0.065,5.623l1.083,0.114l0.38-5.642l0.214-3.171l0.247-3.658
	C127.644,275.317,128.294,275.38,128.959,275.38z M140.395,350.016c-6.01-2.896-13.406-7.039-19.977-10.439
	c-1.114,3.898-1.788,7.894-2.337,11.884c6.86,1.93,14.149,3.499,22.507,5.956c0.316,0.789,0.893,1.463,1.661,1.884
	c1.845,1.013,3.877,1.143,6.034,0.89c1.062-0.125,2.152-0.336,3.269-0.594c0.06,0.016,0.117,0.038,0.177,0.054
	c-1.019,0.879-2.001,1.797-2.961,2.737c1.069,4.802,2.27,9.657,3.678,14.576l-0.092,0.809c2.127,2.369,4.331,4.871,6.599,7.589
	c-0.176,0.832-0.07,1.712,0.334,2.49c1.45,2.787,4.32,4.186,7.569,5.417c1.342,1.513,2.403,3.269,3.394,5.054
	c0.223,0.402,0.955,0.128,0.845-0.375c-0.417-1.912-1.274-3.965-2.493-5.71c0.095-0.065,0.187-0.13,0.278-0.196
	c0.076,0.08,0.154,0.157,0.227,0.24c1.342,1.513,2.403,3.269,3.394,5.054c0.223,0.402,0.955,0.128,0.845-0.375
	c-0.466-2.139-1.485-4.456-2.945-6.318c0.003-0.003,0.006-0.007,0.008-0.01c0.178,0.175,0.352,0.355,0.519,0.543
	c1.342,1.513,2.403,3.269,3.394,5.054c0.223,0.402,0.955,0.128,0.845-0.375c-0.537-2.465-1.804-5.168-3.639-7.135
	c0.048-0.124,0.092-0.253,0.136-0.382c0.024,0.027,0.051,0.052,0.075,0.079c1.342,1.513,2.403,3.269,3.394,5.054
	c0.223,0.402,0.955,0.128,0.845-0.375c-0.715-3.28-2.723-6.977-5.646-8.804c-2.124-2.163-4.641-3.922-7.429-5.189
	c-3.294-5.591-7.023-12.888-10.512-19.246c1.649,0.521,3.237,1.259,4.79,2.056c0.409,0.21,0.865-0.425,0.494-0.782
	c-1.409-1.358-3.263-2.588-5.246-3.361c0.043-0.107,0.083-0.213,0.122-0.318c0.107,0.024,0.215,0.045,0.322,0.073
	c1.956,0.512,3.814,1.382,5.631,2.315c0.409,0.21,0.865-0.425,0.494-0.782c-1.577-1.519-3.711-2.879-5.96-3.615
	c0-0.004,0.001-0.009,0.001-0.013c0.245,0.047,0.49,0.1,0.733,0.163c1.956,0.512,3.814,1.382,5.631,2.315
	c0.409,0.21,0.865-0.425,0.494-0.782c-1.816-1.75-4.372-3.293-6.991-3.909c-0.029-0.13-0.064-0.261-0.099-0.393
	c0.035,0.009,0.071,0.015,0.106,0.024c1.956,0.512,3.814,1.382,5.631,2.315c0.409,0.21,0.865-0.425,0.494-0.782
	c-2.417-2.329-6.142-4.287-9.586-4.181c-0.794-0.165-1.596-0.287-2.402-0.374C144.847,349.589,142.608,349.653,140.395,350.016z
	 M478.644,298.856c-0.919-0.364-1.85-0.646-2.75-0.822c-0.495-0.096-0.747,0.626-0.349,0.836c1.037,0.546,2.058,1.124,3.035,1.76
	c0.691,0.449,1.363,0.924,1.988,1.454c0.027,0.023,0.052,0.048,0.079,0.071c-0.126,0.046-0.251,0.091-0.371,0.141
	c-0.524-0.467-1.1-0.891-1.706-1.274c-1.67-1.057-3.581-1.788-5.36-2.135c-0.495-0.096-0.747,0.626-0.349,0.836
	c1.769,0.932,3.512,1.933,5.023,3.214c0.188,0.159,0.367,0.326,0.543,0.496c-0.003,0.003-0.006,0.006-0.009,0.008
	c-1.855-1.39-4.146-2.337-6.251-2.747c-0.495-0.096-0.747,0.626-0.349,0.836c1.769,0.932,3.512,1.933,5.023,3.214
	c0.082,0.07,0.16,0.145,0.24,0.217c-0.063,0.09-0.125,0.182-0.186,0.277c-1.734-1.156-3.764-1.951-5.645-2.318
	c-0.495-0.096-0.747,0.626-0.349,0.836c1.769,0.932,3.512,1.933,5.023,3.214c0.585,1.447,1.719,3.476,2.519,4.711
	c0.029,0.044,0.06,0.096,0.088,0.138l0.197-0.037l10.748-2.018c-0.028-0.053-0.061-0.102-0.09-0.155
	c-1.247-2.328-2.835-4.444-4.747-6.239C483.302,301.336,481.022,299.797,478.644,298.856z M505.363,321.947
	c0.786,0.319,1.572,0.609,2.234,0.801c1.427,1.373,2.6,3.006,3.706,4.672c0.249,0.375,0.942,0.05,0.796-0.432
	c-0.555-1.834-1.552-3.773-2.877-5.382c0.088-0.071,0.173-0.142,0.256-0.213c0.08,0.072,0.162,0.141,0.24,0.216
	c1.427,1.373,2.599,3.006,3.706,4.672c0.249,0.375,0.942,0.05,0.796-0.432c-0.621-2.053-1.795-4.236-3.366-5.941
	c0.002-0.003,0.005-0.007,0.007-0.01c0.187,0.158,0.371,0.32,0.549,0.49c1.427,1.373,2.6,3.006,3.706,4.672
	c0.249,0.375,0.942,0.05,0.796-0.432c-0.716-2.365-2.162-4.906-4.107-6.684c0.038-0.124,0.071-0.254,0.103-0.384
	c0.026,0.024,0.053,0.047,0.079,0.071c1.427,1.373,2.6,3.006,3.706,4.672c0.249,0.375,0.942,0.05,0.796-0.432
	c-0.829-2.741-2.642-5.712-5.074-7.462C510.379,317.424,508.487,320.092,505.363,321.947z"></path>
<path id="color_x5F_4" fill="#00CEC9" d="M535.932,541.943c0,1.968-1.595,3.562-3.562,3.562H81.715
	c-1.968,0-3.563-1.595-3.563-3.562s1.595-3.563,3.563-3.563h10.666l2.309,1.18l-0.61-1.18h33.845l0.038,0.295h1.67l0.028-0.295
	h13.039l0.327,0.295h10.38l-0.411-0.295h7.297h5.757h3.49h2.574h3.201h1.129h3.153h7.183h3.049h5.906h3.159h4.67h0.749
	c0.108,0.029,0.22,0.049,0.338,0.049l39.267,0c0.097,0,0.186-0.02,0.27-0.049h119.776l-0.411,0.295h10.38l0.327-0.295h13.039
	l0.028,0.295h1.67l0.038-0.295h33.845l-0.61,1.18l2.309-1.18h27.015c0.082,0.029,0.169,0.049,0.266,0.049l26.721,0
	c0.15,0.214,0.397,0.362,0.694,0.357l25.457-0.407h0.809h3.339h5.19h3.283h9.064h5.951
	C534.337,538.381,535.932,539.976,535.932,541.943z M191.867,522.537c-0.508-0.649-1.024-1.343-1.509-2.067
	c-1.358-2.028-2.449-4.307-2.266-6.609l0.353-4.039l0.166-1.897l-0.941-0.035l-3.519-0.129c-1.212-0.045-2.38-0.465-3.343-1.203
	l-4.096-3.139l-0.925-0.709c0,0-1.029,0.476-2.497,1.264c-0.849,0.456-1.839,1.013-2.875,1.652c-1.503,0.928-3.079,2.019-4.398,3.18
	c-0.173,0.152-0.348,0.304-0.511,0.459c-0.565,0.535-0.556,1.435,0.035,1.942l1.756,1.508l4.918,4.224l3.689,3.169l10.918,9.377
	l2.962,2.544l5.545,4.763c0.211,0.181,0.473,0.229,0.713,0.178c0.295-0.062,0.557-0.276,0.64-0.608l0.45-1.791
	c0.248-0.988,0.307-1.998,0.198-2.986c-0.17-1.544-0.759-3.033-1.74-4.287L191.867,522.537z M194.617,473.978
	c-4.455,5.098-8.401,10.653-11.716,16.445c-1.1,1.922-2.13,3.869-3.086,5.834c-0.208,0.428-0.427,0.855-0.628,1.285l0.669,0.574
	l0.394,0.339l9.075,7.795l0.885,0.76c0.605-0.616,1.243-1.257,1.902-1.912c1.986-1.975,4.207-4.116,6.561-6.342
	c1.241-1.174,2.513-2.367,3.816-3.578c0.002,0.076,0.006,0.152,0.009,0.229c0.159,4.807,0.655,9.594,1.474,14.276
	c0.355,2.027,0.757,4.038,1.23,6.016c0.279,1.169,0.579,2.328,0.899,3.476h1.401h11.963h1.166c0.094-1.417,0.189-2.83,0.285-4.24
	c0.198-2.902,0.406-5.791,0.626-8.671c0.221-2.888,0.459-5.766,0.718-8.636c0.275-3.037,0.573-6.066,0.909-9.088
	c0.017-0.154,0.036-0.308,0.054-0.462c0.029-0.255,0.06-0.511,0.089-0.766c0.473-4.135,1.017-8.26,1.651-12.381
	c0.088-0.078,0.183-0.161,0.271-0.238c6.899-6.069,11.044-14.675,11.501-23.852l3.306-66.397c1.142,1.379,2.297,2.747,3.48,4.091
	c0.017-0.029,0.03-0.059,0.047-0.088l7.387-2.088c0.008,0.018,0.013,0.037,0.021,0.054c0.012-0.004,0.023-0.007,0.034-0.011
	c-0.581-1.983-1.255-4.119-1.993-6.358l-8.945,3.773l0,0l0.94-18.873c-1.997,2.466-5.387,4.563-9.524,6.179
	c-2.794-34.011,3.363-68.837-3.893-102.442c-1.56-1.041-3.178-1.966-4.836-2.787l-0.63,7.472l-1.933-0.163
	c-0.283-0.302-0.573-0.597-0.861-0.894c0.032-1.545,0.175-3.108,0.405-4.581c-3.669-3.264-7.599-6.031-11.883-8.408
	c-0.187-0.104-0.364-0.218-0.553-0.32c-0.338,0.848-0.676,1.696-1.014,2.545c-1.058-0.056-2.118-0.071-3.176-0.043
	c6.42,5.025,8.981,12.35,9.887,20.503c5.861,30.772,9.563,61.008,10.343,91.492c-5.347,1.112-11.135,1.538-16.479,1.141
	c1.55,2.564,2.613,5.374,3.133,8.294c1.353,3.092,0.933,7.192-0.302,10.24c-0.189,0.467-0.933,0.284-0.891-0.164
	c0.185-1.991,0.298-3.998,0.049-5.963c-0.004-0.035-0.012-0.07-0.017-0.105c-0.107,0.081-0.214,0.161-0.321,0.234
	c0.397,2.605-0.073,5.491-1.001,7.781c-0.189,0.467-0.933,0.284-0.891-0.164c0.185-1.992,0.298-3.998,0.049-5.963
	c-0.031-0.244-0.072-0.486-0.119-0.726c-0.004,0.001-0.008,0.002-0.012,0.003c0.152,2.313-0.306,4.749-1.111,6.737
	c-0.189,0.467-0.933,0.284-0.891-0.164c0.185-1.992,0.298-3.998,0.049-5.963c-0.014-0.107-0.034-0.213-0.051-0.319
	c-0.11,0.003-0.221,0.005-0.333,0.005c0.021,2.084-0.42,4.219-1.14,5.995c-0.189,0.467-0.933,0.284-0.891-0.164
	c0.185-1.992,0.298-3.998,0.049-5.963c-2.407-3.452-4.204-6.791-2.522-10.794l7.041-3.056c0.01,0.017,0.018,0.035,0.029,0.051
	c0.011-0.005,0.021-0.01,0.032-0.016c-0.84-1.888-1.794-3.915-2.825-6.035l-8.75,5.163c0.582,0.54,1.184,1.058,1.772,1.592
	c-0.467,29.075,19.897,59.443,10.486,86.56c-4.251,3.325-8.244,7.079-11.909,11.151c-0.175,0.194-0.343,0.395-0.517,0.591
	C194.911,473.639,194.765,473.809,194.617,473.978z M216.526,523.691c-0.948,0.756-2.108,1.198-3.319,1.266l-5.153,0.287
	l-1.164,0.065c0,0-2.997,6.539-3.528,11.671c-0.042,0.404,0.103,0.779,0.359,1.048c0.16,0.167,0.363,0.291,0.594,0.353
	c0.108,0.029,0.22,0.049,0.338,0.049l39.267,0c0.097,0,0.186-0.02,0.27-0.049c0.457-0.157,0.711-0.69,0.476-1.158l-0.826-1.651
	c-1.168-2.336-3.348-4.001-5.909-4.513l-5.926-1.185c-0.233-0.047-0.474-0.1-0.712-0.152c-2.901-0.625-6.097-1.631-7.804-3.97
	l-2.241-3.123l-1.233-1.718l-0.736,0.587L216.526,523.691z M509.772,524.825c-1.212-0.048-2.379-0.472-3.339-1.213l-2.789-2.15
	l-0.746-0.575l-1.065,1.536l-2.331,3.36c-1.658,2.35-4.807,3.409-7.682,4.081c-0.143,0.033-0.285,0.066-0.426,0.098
	c-0.696-2.653-1.452-4.654-1.452-4.654l-0.957-0.054l-0.202-0.011l-5.13-0.287c-1.206-0.068-2.33-0.51-3.218-1.266l-2.578-2.195
	l-0.689-0.587l-1.848,2.318l-1.939,2.431l-0.074,0.093c-0.671,0.829-1.527,1.478-2.47,2.016c-1.246,0.71-2.651,1.212-4.062,1.583
	c-0.783,0.206-1.565,0.376-2.314,0.524l-0.813,0.16l-4.732,0.931l-0.476,0.094c-2.601,0.512-4.915,2.178-6.27,4.513l-0.958,1.651
	c-0.272,0.468-0.061,1.002,0.384,1.158c0.082,0.029,0.169,0.049,0.266,0.049l26.721,0c0.15,0.214,0.397,0.362,0.694,0.357
	l25.457-0.407l0.815-0.013l3.363-0.054l5.215-0.083l3.303-0.053l1.11-0.018c0.778-0.012,1.361-0.699,1.268-1.471
	c-0.126-1.052-0.36-2.16-0.647-3.258c-0.439-1.679-1.005-3.327-1.535-4.716c-0.813-2.13-1.532-3.639-1.532-3.639l-1.08-0.043
	l-0.085-0.003L509.772,524.825z M474.141,458.475c0.837,5.81,1.421,11.608,1.83,17.413c0.879,12.464,0.928,24.965,0.79,37.703
	c-0.02,1.856-0.043,3.715-0.068,5.581h1.017h0.149h11.963h1.401c0.635-1.769,1.209-3.572,1.751-5.389
	c2.692-9.026,4.221-18.564,4.382-27.94c0.073-4.229-0.133-8.422-0.635-12.519c-0.11-0.899-0.239-1.79-0.378-2.679
	c-0.454-2.902-1.043-5.753-1.812-8.517c-0.526-1.89-0.896-3.797-1.144-5.717c0.165,0.724,0.317,1.462,0.49,2.177
	c0.968,4.02,1.813,8.035,2.565,12.053c0.133,0.708,0.262,1.416,0.388,2.124c0.508,2.839,0.973,5.68,1.396,8.525
	c0.904,6.08,1.633,12.179,2.264,18.318c0.078,0.761,0.154,1.523,0.229,2.286c0.566,5.712,1.059,11.46,1.537,17.265l0.583-0.009
	l0.583-0.009l11.961-0.191l1.401-0.022c0.834-3.187,1.502-6.461,2.02-9.782c0.722-4.629,1.126-9.354,1.205-14.093
	c0.023-1.418,0.022-2.836-0.014-4.254c-0.071-2.768-0.252-5.529-0.556-8.268c-0.789-7.132-2.373-14.109-4.823-20.619
	c-10.353-27.503,10.576-58.922,8.909-88.552c-7.807,3.162-27.561,2.123-37.134,0.133c0.413-16.137,1.652-32.205,3.589-48.319
	c-3.744,0.861-7.514,1.606-11.305,2.228c0.329,14.615,0.762,29.24-0.428,43.717c-1.518-0.593-2.932-1.252-4.216-1.969
	c-0.992,17.878-2.244,37.776-2.06,56.903c0.004,0.383,0.012,0.763,0.016,1.146C472.123,438.07,472.729,448.674,474.141,458.475z
	 M480.647,302.156c-0.027-0.023-0.052-0.048-0.079-0.071c-0.626-0.531-1.297-1.005-1.988-1.454c-0.004,0.131-0.006,0.262-0.01,0.393
	c0.606,0.383,1.182,0.807,1.706,1.274C480.396,302.247,480.522,302.202,480.647,302.156z M478.442,311.683c0,0.057,0,0.115,0,0.172
	c0.095-0.024,0.19-0.047,0.285-0.071l-0.197,0.037C478.502,311.779,478.471,311.728,478.442,311.683z M484.638,303.372
	c1.911,1.795,3.5,3.911,4.747,6.239c0.91-0.139,1.821-0.273,2.733-0.388c1.337-9.041,2.879-18.108,4.615-27.223
	c0.906-8.154,3.467-15.478,9.887-20.503c-1.058-0.027-2.118-0.012-3.176,0.043c-0.338-0.848-0.676-1.696-1.014-2.545
	c-0.188,0.102-0.366,0.217-0.553,0.32c-4.285,2.377-8.214,5.144-11.883,8.408c0.231,1.474,0.374,3.036,0.405,4.581
	c-0.288,0.297-0.578,0.591-0.861,0.894l-1.933,0.163l-0.63-7.472c-1.658,0.82-3.276,1.746-4.836,2.787
	c-2.153,9.97-3.12,20.048-3.495,30.18C481.022,299.797,483.302,301.336,484.638,303.372z M369.653,355.434
	c-0.619-0.391-1.262-0.762-1.96-1.083c-0.914,1.541-1.861,3.213-2.83,4.969c1.154,0.978,2.254,2.012,3.331,3.068
	C368.715,360.055,369.2,357.737,369.653,355.434z M389.829,488.519l0.086-0.826l2.83-27.216l12.904,19.749l0.414,0.634
	l13.423,20.543l8.621-4.85l-8.954-23.171l-0.276-0.714l-9.267-23.981l-10.114-9.82l15.317-31.421
	c4.81-9.869,5.891-21.143,3.042-31.746l-0.519-1.931c-14.198,7.574-38.015,9.507-52.818,3.195l0.092,0.809l5.328,46.598l0.111,0.969
	l0.738,6.459l6.49,60.768l0.078,0.734l1.14,10.671h9.728L389.829,488.519z M403.761,276.862c-0.076-0.416-0.139-0.838-0.227-1.248
	c-0.282,0.239-0.58,0.456-0.883,0.664c-3.312,2.278-7.744,2.936-10.703,5.683c-0.105,1.872-0.111,3.748-0.065,5.623l-1.083,0.114
	l-0.38-5.642c-1.349,0.785-2.697,1.625-4.012,2.498c-3.679,4.999-5.151,11.496-4.407,17.444c6.748-11.81,18.241-19.192,31.098-22.68
	c-0.855-0.782-1.82-1.429-2.916-1.873C408.161,276.63,405.943,276.579,403.761,276.862z M427.256,327.465
	c-0.811,1.597-1.648,3.327-2.5,5.143c3.257,2.414,6.224,5.175,9.088,8.006c1.155-1.544,2.265-3.094,3.333-4.671
	C434.664,332.45,431.728,329.181,427.256,327.465z M151.553,359.597c-1.117,0.258-2.207,0.469-3.269,0.594
	c0.156,0.73,0.321,1.464,0.485,2.197c0.96-0.94,1.942-1.857,2.961-2.737C151.67,359.635,151.612,359.613,151.553,359.597z
	 M124.218,460.476l4.522,43.496h9.728l7.69-72.005l0.018-0.168l0.097-0.845l6.081-53.181l0.092-0.809
	c-14.803,6.311-38.62,4.379-52.818-3.195l-0.519,1.931c-2.849,10.602-1.769,21.877,3.042,31.746l15.317,31.421l-10.114,9.82
	l-18.498,47.866l8.621,4.85L124.218,460.476z M125.081,287.585c0.046-1.875,0.04-3.75-0.065-5.623
	c-2.96-2.748-7.391-3.406-10.703-5.683c-0.303-0.209-0.601-0.426-0.883-0.664c-0.088,0.41-0.151,0.832-0.227,1.248
	c-2.182-0.283-4.401-0.232-6.421,0.585c-0.884,0.358-1.679,0.852-2.403,1.438c-0.174,0.141-0.348,0.283-0.513,0.434
	c12.857,3.488,24.349,10.87,31.098,22.68c0.743-5.948-0.728-12.446-4.407-17.444c-1.316-0.874-2.663-1.714-4.012-2.498l-0.38,5.642
	L125.081,287.585z M115.303,337.018c-2.503,4.083-2.843,8.464-2.71,12.765c1.807,0.601,3.631,1.155,5.487,1.677
	c0.549-3.99,1.222-7.986,2.337-11.884C118.636,338.655,116.919,337.792,115.303,337.018z"></path>
<path id="color_x5F_3" fill="#E84393" d="M208.578,250.743l-0.092,1.096c-2.609-5.337-4.423-11.062-5.336-16.933
	c-0.319-2.049-0.527-4.163-0.045-6.179c0.482-2.017,1.767-3.942,3.693-4.709c-0.241-5.1,2.631-9.444,7.441-11.156
	c4.81-1.712,10.114-1.178,15.132-0.235c1.224,0.23,2.468,0.484,3.706,0.344c1.238-0.14,2.495-0.748,3.08-1.847
	c4.137,3.115,6.589,8.491,5.572,13.569c-0.747,3.728-3.162,7.046-6.378,9.057v-7.736h-14.656l-0.918,5.237l-2.724,1.401
	l-2.159,10.932h-1.854v-1.316c0-1.831-1.498-3.328-3.328-3.328c-1.831,0-3.328,1.498-3.328,3.328v2.322
	c0,1.283,0.737,2.399,1.806,2.955C208.189,248.647,208.333,249.715,208.578,250.743z M489.04,226.014l0.918,5.237l2.724,1.401
	l2.159,10.932h1.854v-1.316c0-1.831,1.498-3.328,3.328-3.328s3.328,1.498,3.328,3.328v2.322c0,1.283-0.737,2.399-1.806,2.955
	c0,1.103-0.144,2.171-0.389,3.199l0.092,1.096c2.609-5.337,4.423-11.063,5.336-16.933c0.319-2.049,0.527-4.163,0.045-6.179
	c-0.321-1.344-0.999-2.648-1.986-3.595c-0.968-0.929-1.623-2.116-1.817-3.445c-1.135-7.762-9.536-10.783-16.532-10.446
	c-4.631,0.223-9.575,1.855-12.89,5.295c-3.713,3.854-4.936,10.124-1.797,14.708c0.725,1.059,1.686,1.947,2.776,2.625v-7.856H489.04z
	 M375.539,293.382c2.524-2.703,6.521-5.939,10.868-8.827c1.316-0.874,2.663-1.714,4.012-2.498l-0.46-6.829
	c-0.641,0.09-1.29,0.152-1.955,0.152h-3.57c-3.378,0-7.94-4.518-7.94-10.107l-2.181-24.198c2.497,5.024,6.88,9.279,11.629,12.502
	c4.156,2.82,8.734,4.703,13.492,5.688l2.608,2.076c0,1.026-0.117,2.023-0.326,2.986l0.126-0.013l0.806,11.965
	c0.303-0.209,0.601-0.426,0.883-0.664c0.088,0.41,0.151,0.832,0.227,1.248c2.182-0.283,4.401-0.232,6.421,0.585
	c1.096,0.444,2.062,1.09,2.916,1.873c2.184,1.999,3.618,4.915,4.468,7.815c0.011,0.038,0.018,0.077,0.029,0.115
	c2.776,3.283,5.239,6.408,7.57,9.467c-1.034-4.546-2.617-9.066-3.368-13.67c-1.988-12.19,1.911-24.965-1.261-36.902
	c-2.441-9.188-9.198-17.131-17.876-21.014c-15.831-7.083-42.974-1.931-41.298,20.086c0.527,6.926,4.401,13.349,4.409,20.295
	c0.007,6.547-3.396,12.534-5.494,18.735c-2.715,8.024-3.247,16.896-0.744,24.989c2.338,7.558,7.451,14.347,14.343,18.187
	C373.952,314.343,361.44,308.479,375.539,293.382z M422.781,315.959c-2.231-2.475-4.371-4.814-6.535-7.19
	c-0.448,1.791-0.914,3.543-1.352,5.225c-1.31,5.03-2.616,8.669-3.874,12.592c1.564-0.796,3.067-1.706,4.488-2.747
	C418.4,321.72,420.919,319.021,422.781,315.959z M97.165,268.401c0.376,3.499,1.21,6.997,1.534,10.485h5.68
	c0.724-0.586,1.52-1.081,2.403-1.438c2.02-0.818,4.238-0.868,6.421-0.585c0.076-0.416,0.139-0.838,0.227-1.248
	c0.282,0.239,0.58,0.456,0.883,0.664l0.806-11.965l0.126,0.013c-0.209-0.963-0.326-1.96-0.326-2.986l2.608-2.076
	c4.759-0.985,9.336-2.868,13.492-5.688c4.749-3.223,9.132-7.478,11.629-12.502l-2.181,24.198c0,5.589-4.562,10.107-7.94,10.107
	h-3.57c-0.665,0-1.315-0.062-1.955-0.152l-0.247,3.658h23.454c-0.033-0.061-0.062-0.122-0.097-0.183
	c-0.03-0.052-0.06-0.104-0.09-0.156c-1.89-3.254-4.38-6.522-4.218-10.281c0.165-3.817,3.008-6.885,4.968-10.164
	c3.552-5.94,4.326-13.466,2.058-20.006c-4.628-13.343-21.682-14.919-33.57-12.69c-10.513,1.971-16.65,9.561-19.78,18.763
	c-1.382,4.063-2.182,8.436-2.505,12.784C96.685,260.877,96.775,264.778,97.165,268.401z"></path>
<path id="color_x5F_2" fill="#FBC02D" d="M325.703,148.882c-1.218-0.156-2.441-0.297-3.668-0.423
	c-0.254-0.026-0.438-0.253-0.412-0.506c0.026-0.255,0.257-0.432,0.506-0.413c1.236,0.127,2.466,0.268,3.691,0.426
	c0.253,0.032,0.432,0.264,0.4,0.517c-0.03,0.233-0.229,0.403-0.457,0.403C325.743,148.886,325.723,148.885,325.703,148.882z
	 M318.632,438.189c-0.254,0.02-0.445,0.242-0.424,0.496c0.019,0.242,0.221,0.426,0.459,0.426c0.013,0,0.025-0.001,0.037-0.002
	c1.239-0.097,2.472-0.21,3.701-0.339c0.254-0.026,0.438-0.253,0.411-0.507c-0.026-0.253-0.259-0.443-0.507-0.411
	C321.087,437.979,319.862,438.091,318.632,438.189z M308.493,438.635c-0.255,0.003-0.46,0.211-0.457,0.466
	c0.003,0.253,0.209,0.457,0.462,0.457c0.002,0,0.003,0,0.005,0c1.241-0.013,2.478-0.04,3.711-0.082
	c0.254-0.009,0.454-0.223,0.445-0.478c-0.01-0.254-0.227-0.447-0.478-0.446C310.956,438.595,309.727,438.622,308.493,438.635z
	 M315.624,147.944c0.244,0,0.446-0.189,0.461-0.435c0.014-0.254-0.179-0.473-0.434-0.487c-1.234-0.072-2.471-0.128-3.712-0.168
	c-0.005,0-0.011,0-0.015,0c-0.248,0-0.454,0.197-0.462,0.446c-0.008,0.255,0.192,0.469,0.446,0.477
	c1.234,0.041,2.464,0.096,3.689,0.167C315.606,147.943,315.615,147.944,315.624,147.944z M305.904,147.238
	c-0.003-0.255-0.199-0.419-0.467-0.457c-1.242,0.014-2.478,0.042-3.711,0.087c-0.255,0.009-0.455,0.223-0.445,0.477
	c0.009,0.249,0.214,0.446,0.461,0.446c0.006,0,0.011,0,0.017,0c1.226-0.043,2.455-0.072,3.688-0.086
	C305.702,147.702,305.906,147.493,305.904,147.238z M328.718,437.039c-0.253,0.037-0.427,0.272-0.389,0.524
	c0.033,0.23,0.231,0.394,0.456,0.394c0.023,0,0.046-0.002,0.068-0.005c1.228-0.182,2.451-0.382,3.668-0.595
	c0.252-0.044,0.419-0.283,0.375-0.534c-0.043-0.253-0.298-0.427-0.534-0.375C331.153,436.659,329.938,436.857,328.718,437.039z
	 M342.248,151.034c-0.253-0.061-0.498,0.091-0.559,0.338c-0.061,0.247,0.09,0.498,0.337,0.559c1.197,0.295,2.388,0.606,3.573,0.931
	c0.042,0.011,0.082,0.016,0.123,0.016c0.203,0,0.389-0.134,0.446-0.34c0.068-0.246-0.078-0.5-0.323-0.568
	C344.65,151.643,343.452,151.331,342.248,151.034z M352.075,153.829c-0.241-0.078-0.502,0.055-0.581,0.297
	c-0.078,0.243,0.054,0.503,0.298,0.581c1.176,0.381,2.347,0.775,3.511,1.184c0.05,0.018,0.103,0.026,0.153,0.026
	c0.19,0,0.369-0.119,0.436-0.309c0.085-0.24-0.042-0.504-0.282-0.588C354.438,154.609,353.26,154.212,352.075,153.829z
	 M335.813,150.532c0.216,0,0.408-0.151,0.452-0.371c0.051-0.25-0.112-0.493-0.362-0.543c-1.212-0.243-2.43-0.47-3.654-0.682
	c-0.245-0.045-0.49,0.125-0.533,0.376c-0.044,0.251,0.124,0.49,0.376,0.534c1.215,0.211,2.425,0.437,3.63,0.678
	C335.752,150.529,335.783,150.532,335.813,150.532z M338.348,435.74c0.048,0.216,0.239,0.362,0.451,0.362
	c0.033,0,0.067-0.004,0.1-0.011c1.211-0.269,2.417-0.553,3.617-0.851c0.247-0.061,0.398-0.312,0.336-0.56
	c-0.062-0.248-0.312-0.398-0.56-0.336c-1.191,0.297-2.39,0.579-3.594,0.846C338.45,435.244,338.293,435.491,338.348,435.74z
	 M265.731,153.163c-0.073-0.244-0.33-0.384-0.574-0.311c-1.189,0.354-2.372,0.723-3.548,1.107c-0.242,0.079-0.375,0.34-0.296,0.582
	c0.064,0.195,0.245,0.318,0.439,0.318c0.047,0,0.096-0.007,0.143-0.023c1.168-0.381,2.343-0.748,3.524-1.1
	C265.665,153.665,265.804,153.408,265.731,153.163z M275.595,150.63c-0.056-0.249-0.301-0.405-0.551-0.35
	c-1.211,0.27-2.417,0.555-3.616,0.855c-0.248,0.062-0.398,0.313-0.336,0.56c0.052,0.21,0.24,0.35,0.447,0.35
	c0.037,0,0.075-0.004,0.112-0.014c1.192-0.298,2.39-0.581,3.594-0.85C275.494,151.126,275.651,150.879,275.595,150.63z
	 M268.345,433.439c-0.245-0.066-0.5,0.077-0.568,0.323c-0.068,0.246,0.077,0.501,0.322,0.568c1.193,0.328,2.391,0.641,3.595,0.94
	c0.037,0.009,0.074,0.013,0.111,0.013c0.207,0,0.395-0.141,0.448-0.351c0.061-0.247-0.09-0.498-0.337-0.559
	C270.72,434.077,269.529,433.766,268.345,433.439z M258.646,430.397c-0.241-0.087-0.504,0.041-0.589,0.281
	c-0.085,0.241,0.042,0.505,0.282,0.59c1.171,0.413,2.349,0.812,3.532,1.195c0.047,0.015,0.096,0.023,0.142,0.023
	c0.195,0,0.376-0.124,0.439-0.319c0.079-0.243-0.054-0.503-0.297-0.582C260.979,431.203,259.81,430.808,258.646,430.397z
	 M298.343,438.387c-0.248-0.023-0.473,0.18-0.488,0.434c-0.015,0.254,0.179,0.474,0.434,0.488c1.233,0.072,2.47,0.131,3.712,0.172
	c0.005,0,0.01,0,0.016,0c0.248,0,0.453-0.197,0.461-0.446c0.008-0.254-0.191-0.468-0.446-0.477
	C300.798,438.516,299.569,438.459,298.343,438.387z M278.221,435.788c-0.25-0.052-0.494,0.112-0.544,0.362s0.112,0.493,0.362,0.544
	c1.212,0.243,2.429,0.473,3.652,0.685c0.027,0.005,0.054,0.007,0.08,0.007c0.22,0,0.415-0.158,0.454-0.382
	c0.044-0.251-0.124-0.491-0.376-0.534C280.635,436.257,279.425,436.029,278.221,435.788z M295.732,147.665
	c-0.021-0.254-0.237-0.442-0.497-0.423c-1.238,0.099-2.471,0.213-3.7,0.343c-0.254,0.027-0.438,0.254-0.411,0.507
	c0.025,0.237,0.225,0.414,0.459,0.414c0.016,0,0.032-0.001,0.049-0.003c1.221-0.129,2.446-0.242,3.677-0.34
	C295.563,148.142,295.753,147.919,295.732,147.665z M288.237,437.437c-0.248-0.031-0.484,0.147-0.517,0.399
	c-0.032,0.253,0.146,0.485,0.399,0.518c1.226,0.158,2.456,0.301,3.691,0.428c0.016,0.002,0.032,0.003,0.048,0.003
	c0.234,0,0.434-0.177,0.459-0.414c0.026-0.254-0.158-0.481-0.412-0.507C290.678,437.737,289.455,437.595,288.237,437.437z
	 M285.611,148.796c-0.038-0.252-0.269-0.421-0.525-0.388c-1.227,0.185-2.45,0.385-3.667,0.6c-0.251,0.044-0.419,0.284-0.374,0.535
	c0.039,0.224,0.234,0.381,0.454,0.381c0.027,0,0.054-0.002,0.081-0.007c1.209-0.213,2.424-0.412,3.644-0.595
	C285.476,149.284,285.649,149.048,285.611,148.796z M424.74,206.871c-0.206,0.15-0.251,0.439-0.101,0.645
	c0.725,0.993,1.437,1.995,2.137,3.006c0.089,0.13,0.234,0.199,0.38,0.199c0.091,0,0.182-0.027,0.262-0.082
	c0.21-0.145,0.262-0.432,0.117-0.642c-0.703-1.019-1.42-2.027-2.149-3.026C425.234,206.766,424.945,206.721,424.74,206.871z
	 M443.961,242.554c-0.24,0.088-0.363,0.353-0.275,0.592c0.423,1.154,0.831,2.316,1.226,3.484c0.065,0.192,0.244,0.314,0.437,0.314
	c0.049,0,0.099-0.008,0.148-0.024c0.242-0.082,0.372-0.344,0.29-0.585c-0.397-1.176-0.808-2.344-1.233-3.506
	C444.466,242.59,444.202,242.467,443.961,242.554z M453.393,296.884c0.031-1.234,0.046-2.472,0.046-3.715v-0.29
	c0-0.255-0.207-0.462-0.462-0.462c-0.255,0-0.462,0.207-0.462,0.462v0.29c0,1.234-0.015,2.465-0.046,3.692
	c-0.006,0.255,0.196,0.467,0.45,0.474c0.004,0,0.008,0,0.012,0C453.181,297.335,453.387,297.135,453.393,296.884z M440.109,233.159
	c-0.233,0.105-0.337,0.377-0.233,0.611c0.501,1.118,0.988,2.244,1.461,3.377c0.074,0.177,0.245,0.284,0.426,0.284
	c0.06,0,0.12-0.011,0.178-0.036c0.235-0.098,0.346-0.368,0.248-0.604c-0.475-1.141-0.966-2.274-1.47-3.399
	C440.614,233.159,440.341,233.055,440.109,233.159z M435.605,224.051c-0.226,0.12-0.31,0.4-0.19,0.625
	c0.578,1.081,1.144,2.172,1.696,3.269c0.081,0.161,0.244,0.254,0.412,0.254c0.07,0,0.141-0.016,0.207-0.049
	c0.228-0.114,0.319-0.392,0.205-0.62c-0.555-1.105-1.124-2.202-1.706-3.29C436.109,224.015,435.826,223.932,435.605,224.051z
	 M430.474,215.274c-0.216,0.135-0.281,0.42-0.146,0.636c0.653,1.04,1.293,2.089,1.921,3.146c0.086,0.145,0.24,0.226,0.397,0.226
	c0.08,0,0.161-0.021,0.235-0.065c0.219-0.13,0.292-0.414,0.161-0.633c-0.631-1.064-1.275-2.119-1.932-3.165
	C430.973,215.204,430.689,215.14,430.474,215.274z M450.571,266.633c0.251-0.047,0.416-0.288,0.369-0.539
	c-0.229-1.22-0.472-2.434-0.73-3.644c-0.054-0.249-0.297-0.411-0.548-0.355c-0.249,0.053-0.409,0.298-0.355,0.548
	c0.256,1.201,0.499,2.409,0.726,3.621c0.042,0.222,0.235,0.377,0.453,0.377C450.514,266.641,450.543,266.638,450.571,266.633z
	 M452.327,307.5c0.235,0,0.436-0.179,0.459-0.418c0.116-1.231,0.217-2.465,0.302-3.704c0.017-0.254-0.175-0.475-0.429-0.493
	c-0.255-0.012-0.474,0.175-0.492,0.429c-0.085,1.231-0.184,2.457-0.3,3.68c-0.023,0.254,0.162,0.479,0.417,0.503
	C452.297,307.5,452.312,307.5,452.327,307.5z M450.942,317.593c0.026,0.004,0.051,0.006,0.077,0.006
	c0.221,0,0.417-0.161,0.455-0.386c0.203-1.221,0.389-2.445,0.56-3.674c0.035-0.253-0.141-0.486-0.393-0.521
	c-0.245-0.029-0.487,0.141-0.521,0.393c-0.17,1.222-0.355,2.439-0.556,3.651C450.521,317.313,450.69,317.551,450.942,317.593z
	 M451.471,272.117c-0.253,0.036-0.429,0.269-0.392,0.522c0.171,1.216,0.328,2.437,0.47,3.663c0.028,0.235,0.227,0.409,0.458,0.409
	c0.018,0,0.036-0.001,0.054-0.003c0.253-0.029,0.435-0.258,0.406-0.512c-0.143-1.233-0.3-2.462-0.474-3.685
	C451.957,272.256,451.727,272.077,451.471,272.117z M404.232,184.303c-0.17,0.19-0.155,0.482,0.035,0.652
	c0.915,0.823,1.82,1.658,2.715,2.503c0.089,0.084,0.204,0.126,0.318,0.126c0.123,0,0.244-0.049,0.335-0.145
	c0.175-0.185,0.167-0.478-0.018-0.653c-0.9-0.85-1.812-1.691-2.733-2.519C404.697,184.099,404.402,184.114,404.232,184.303z
	 M380.102,166.278c-0.22-0.126-0.503-0.051-0.63,0.169c-0.128,0.221-0.052,0.503,0.169,0.631c1.068,0.616,2.129,1.246,3.179,1.889
	c0.075,0.046,0.158,0.068,0.241,0.068c0.155,0,0.307-0.078,0.394-0.221c0.133-0.217,0.064-0.502-0.153-0.635
	C382.243,167.532,381.177,166.898,380.102,166.278z M388.137,171.821c-0.142,0.211-0.086,0.498,0.125,0.641
	c1.022,0.689,2.036,1.391,3.038,2.105c0.081,0.058,0.175,0.086,0.268,0.086c0.144,0,0.286-0.068,0.376-0.194
	c0.148-0.208,0.099-0.496-0.108-0.644c-1.01-0.719-2.029-1.425-3.058-2.118C388.567,171.556,388.281,171.609,388.137,171.821z
	 M396.403,177.784c-0.157,0.201-0.121,0.491,0.08,0.648c0.971,0.758,1.932,1.528,2.883,2.31c0.086,0.071,0.189,0.105,0.293,0.105
	c0.133,0,0.265-0.057,0.357-0.169c0.161-0.197,0.134-0.488-0.064-0.65c-0.957-0.787-1.925-1.562-2.901-2.324
	C396.849,177.548,396.56,177.581,396.403,177.784z M371.064,161.477c-0.226-0.11-0.505-0.017-0.617,0.213
	c-0.112,0.229-0.016,0.506,0.213,0.617c1.11,0.541,2.212,1.095,3.306,1.663c0.069,0.035,0.141,0.052,0.213,0.052
	c0.167,0,0.327-0.091,0.409-0.249c0.118-0.226,0.03-0.505-0.197-0.623C373.291,162.579,372.181,162.021,371.064,161.477z
	 M411.588,191.349c-0.183,0.178-0.188,0.47-0.011,0.653c0.856,0.884,1.7,1.779,2.535,2.684c0.091,0.099,0.215,0.149,0.339,0.149
	c0.112,0,0.224-0.041,0.313-0.122c0.188-0.173,0.199-0.465,0.026-0.653c-0.839-0.91-1.688-1.811-2.55-2.701
	C412.063,191.177,411.771,191.172,411.588,191.349z M418.434,198.883c-0.195,0.164-0.22,0.456-0.056,0.651
	c0.793,0.94,1.573,1.891,2.34,2.852c0.091,0.114,0.226,0.174,0.361,0.174c0.101,0,0.203-0.033,0.289-0.101
	c0.198-0.159,0.232-0.45,0.072-0.649c-0.773-0.967-1.558-1.924-2.355-2.871C418.92,198.744,418.629,198.72,418.434,198.883z
	 M361.706,157.32c-0.234-0.095-0.506,0.019-0.601,0.256c-0.096,0.237,0.019,0.506,0.256,0.601c1.146,0.462,2.285,0.937,3.416,1.428
	c0.06,0.026,0.123,0.038,0.184,0.038c0.179,0,0.348-0.104,0.424-0.278c0.101-0.234-0.006-0.506-0.24-0.607
	C364.006,158.263,362.859,157.784,361.706,157.32z M255.475,156.114c-1.161,0.437-2.315,0.888-3.461,1.353
	c-0.236,0.096-0.35,0.365-0.254,0.602c0.073,0.18,0.246,0.288,0.428,0.288c0.058,0,0.117-0.011,0.174-0.034
	c1.139-0.463,2.285-0.911,3.439-1.345c0.238-0.09,0.359-0.356,0.269-0.595C255.98,156.145,255.714,156.024,255.475,156.114z
	 M452.147,282.733c0.087,1.224,0.16,2.453,0.216,3.686c0.011,0.247,0.215,0.441,0.461,0.441c0.006,0,0.014,0,0.021,0
	c0.255-0.012,0.452-0.227,0.44-0.482c-0.056-1.241-0.128-2.478-0.216-3.711c-0.019-0.255-0.257-0.45-0.493-0.427
	C452.321,282.258,452.129,282.479,452.147,282.733z M435.498,361.507c-0.581,1.089-1.175,2.17-1.782,3.242
	c-0.125,0.222-0.047,0.503,0.175,0.63c0.072,0.041,0.15,0.06,0.227,0.06c0.161,0,0.317-0.084,0.402-0.234
	c0.611-1.08,1.209-2.166,1.793-3.262c0.12-0.225,0.034-0.505-0.19-0.625C435.898,361.198,435.619,361.282,435.498,361.507z
	 M439.965,352.369c-0.503,1.128-1.02,2.249-1.551,3.361c-0.11,0.231-0.013,0.506,0.217,0.616c0.065,0.031,0.133,0.045,0.199,0.045
	c0.172,0,0.337-0.096,0.417-0.262c0.535-1.12,1.055-2.247,1.562-3.383c0.104-0.234-0.001-0.506-0.234-0.611
	C440.343,352.033,440.07,352.136,439.965,352.369z M443.781,342.934c-0.423,1.162-0.859,2.316-1.311,3.463
	c-0.094,0.237,0.023,0.506,0.26,0.599c0.056,0.023,0.113,0.032,0.17,0.032c0.184,0,0.358-0.111,0.429-0.292
	c0.456-1.156,0.896-2.318,1.32-3.487c0.088-0.24-0.036-0.504-0.276-0.592C444.132,342.573,443.867,342.695,443.781,342.934z
	 M430.404,370.305c-0.655,1.045-1.322,2.081-2.003,3.108c-0.141,0.213-0.082,0.5,0.13,0.64c0.078,0.051,0.167,0.077,0.255,0.077
	c0.15,0,0.296-0.073,0.385-0.206c0.685-1.035,1.357-2.077,2.016-3.128c0.135-0.216,0.07-0.501-0.146-0.637
	S430.539,370.089,430.404,370.305z M358.311,430.306c0.054,0,0.109-0.009,0.162-0.03c1.161-0.436,2.315-0.886,3.462-1.349
	c0.236-0.096,0.351-0.365,0.255-0.602c-0.096-0.236-0.367-0.349-0.602-0.255c-1.14,0.462-2.287,0.908-3.441,1.342
	c-0.239,0.089-0.36,0.355-0.27,0.594C357.949,430.192,358.125,430.306,358.311,430.306z M367.509,425.519
	c-0.232,0.106-0.334,0.381-0.228,0.612c0.078,0.17,0.245,0.27,0.42,0.27c0.064,0,0.13-0.013,0.192-0.041
	c0.724-0.331,1.438-0.677,2.155-1.02l-0.111-0.969C369.13,424.758,368.324,425.146,367.509,425.519z M447.492,332.946
	c-0.249-0.076-0.501,0.071-0.571,0.317c-0.339,1.185-0.693,2.364-1.061,3.537c-0.077,0.243,0.059,0.502,0.302,0.578
	c0.046,0.015,0.092,0.022,0.138,0.022c0.197,0,0.379-0.126,0.44-0.324c0.372-1.181,0.727-2.367,1.068-3.559
	C447.879,333.271,447.738,333.016,447.492,332.946z M424.711,378.723c-0.725,0.996-1.464,1.982-2.213,2.959
	c-0.155,0.203-0.117,0.492,0.085,0.648c0.084,0.065,0.183,0.096,0.281,0.096c0.138,0,0.275-0.062,0.366-0.18
	c0.755-0.984,1.497-1.976,2.228-2.979c0.15-0.206,0.105-0.494-0.102-0.645C425.151,378.472,424.861,378.517,424.711,378.723z
	 M448.265,256.702c0.038,0,0.078-0.005,0.116-0.015c0.247-0.065,0.395-0.317,0.33-0.563c-0.313-1.2-0.64-2.395-0.983-3.584
	c-0.071-0.245-0.329-0.386-0.572-0.316c-0.245,0.071-0.386,0.326-0.316,0.572c0.341,1.181,0.667,2.368,0.978,3.56
	C447.873,256.564,448.06,256.702,448.265,256.702z M188.988,379.439c0.094,0,0.189-0.029,0.271-0.088
	c0.206-0.151,0.252-0.439,0.101-0.645c-0.723-0.994-1.434-1.996-2.133-3.01c-0.145-0.21-0.433-0.263-0.642-0.118
	c-0.21,0.145-0.263,0.433-0.118,0.643c0.703,1.019,1.419,2.028,2.146,3.028C188.704,379.374,188.845,379.439,188.988,379.439z
	 M173.729,353.088c0.063,0,0.127-0.013,0.188-0.04c0.233-0.105,0.337-0.378,0.233-0.611c-0.5-1.119-0.986-2.246-1.458-3.379
	c-0.097-0.236-0.368-0.344-0.604-0.249c-0.235,0.098-0.347,0.369-0.248,0.604c0.475,1.141,0.964,2.275,1.467,3.401
	C173.383,352.986,173.552,353.088,173.729,353.088z M178.195,362.214c0.073,0,0.147-0.017,0.217-0.054
	c0.225-0.12,0.31-0.4,0.19-0.625c-0.577-1.082-1.141-2.173-1.692-3.271c-0.114-0.229-0.391-0.32-0.62-0.207
	c-0.228,0.115-0.32,0.392-0.206,0.62c0.554,1.106,1.121,2.203,1.702,3.293C177.87,362.126,178.029,362.214,178.195,362.214z
	 M448.9,327.57c0.036,0.009,0.072,0.013,0.107,0.013c0.209,0,0.399-0.142,0.449-0.354c0.287-1.204,0.558-2.413,0.815-3.627
	c0.052-0.25-0.106-0.494-0.356-0.548c-0.251-0.047-0.494,0.107-0.547,0.356c-0.255,1.207-0.525,2.407-0.81,3.603
	C448.499,327.262,448.652,327.511,448.9,327.57z M348.657,433.548c0.043,0,0.088-0.006,0.132-0.019
	c1.19-0.353,2.372-0.721,3.548-1.104c0.243-0.079,0.375-0.34,0.297-0.582c-0.079-0.243-0.34-0.374-0.582-0.297
	c-1.169,0.381-2.344,0.746-3.526,1.097c-0.244,0.073-0.383,0.329-0.311,0.575C348.274,433.418,348.458,433.548,348.657,433.548z
	 M183.29,371.012c0.084,0,0.169-0.023,0.245-0.07c0.216-0.135,0.281-0.42,0.146-0.637c-0.652-1.04-1.291-2.09-1.918-3.148
	c-0.129-0.218-0.412-0.291-0.633-0.162c-0.219,0.131-0.292,0.414-0.162,0.633c0.63,1.065,1.274,2.12,1.93,3.167
	C182.986,370.935,183.136,371.012,183.29,371.012z M249.173,426.677c-0.233-0.102-0.505,0.006-0.607,0.24
	c-0.101,0.234,0.006,0.506,0.24,0.608c1.138,0.493,2.284,0.973,3.437,1.439c0.057,0.023,0.115,0.033,0.173,0.033
	c0.183,0,0.355-0.109,0.428-0.289c0.096-0.236-0.019-0.506-0.255-0.602C251.443,427.645,250.304,427.167,249.173,426.677z
	 M239.991,422.302c-0.227-0.118-0.506-0.031-0.623,0.197c-0.118,0.226-0.03,0.505,0.196,0.622c1.101,0.573,2.209,1.132,3.325,1.678
	c0.065,0.032,0.134,0.047,0.202,0.047c0.171,0,0.335-0.096,0.415-0.259c0.112-0.229,0.017-0.506-0.212-0.618
	C242.186,423.426,241.084,422.871,239.991,422.302z M163.488,319.564c-0.251,0.046-0.416,0.288-0.37,0.538
	c0.076,0.407,0.163,0.811,0.243,1.217l0.644-1.441C163.934,319.662,163.719,319.521,163.488,319.564z M195.26,387.453
	c0.105,0,0.21-0.035,0.297-0.108c0.195-0.164,0.221-0.456,0.056-0.65c-0.791-0.942-1.571-1.893-2.338-2.855
	c-0.159-0.2-0.45-0.233-0.649-0.073c-0.199,0.159-0.232,0.449-0.073,0.648c0.772,0.969,1.557,1.926,2.353,2.873
	C194.997,387.397,195.128,387.453,195.26,387.453z M219.778,175.612c-0.994,0.739-1.977,1.49-2.951,2.252
	c-0.201,0.157-0.236,0.447-0.079,0.648c0.091,0.116,0.227,0.177,0.364,0.177c0.1,0,0.2-0.032,0.285-0.098
	c0.967-0.758,1.944-1.504,2.932-2.238c0.205-0.152,0.247-0.441,0.095-0.646C220.272,175.502,219.983,175.459,219.778,175.612z
	 M190.765,204.209c-0.754,0.984-1.495,1.977-2.224,2.981c-0.15,0.206-0.104,0.495,0.102,0.645c0.082,0.06,0.177,0.088,0.271,0.088
	c0.143,0,0.284-0.066,0.374-0.19c0.725-0.997,1.462-1.984,2.211-2.962c0.155-0.202,0.117-0.492-0.086-0.648
	C191.21,203.968,190.921,204.007,190.765,204.209z M197.259,196.318c-0.819,0.929-1.627,1.867-2.424,2.817
	c-0.164,0.195-0.138,0.487,0.057,0.651c0.087,0.072,0.192,0.108,0.296,0.108c0.132,0,0.263-0.056,0.354-0.165
	c0.791-0.943,1.595-1.877,2.409-2.8c0.169-0.191,0.151-0.483-0.041-0.652C197.721,196.108,197.428,196.126,197.259,196.318z
	 M184.833,212.537c-0.684,1.035-1.355,2.078-2.013,3.13c-0.135,0.216-0.07,0.501,0.147,0.636c0.076,0.048,0.161,0.07,0.244,0.07
	c0.154,0,0.304-0.077,0.392-0.217c0.654-1.046,1.32-2.082,2-3.11c0.141-0.213,0.083-0.499-0.13-0.64
	C185.26,212.265,184.973,212.323,184.833,212.537z M204.283,188.898c-0.882,0.869-1.753,1.75-2.613,2.641
	c-0.177,0.183-0.172,0.476,0.012,0.653c0.09,0.087,0.205,0.129,0.321,0.129c0.121,0,0.242-0.047,0.332-0.141
	c0.855-0.886,1.72-1.76,2.596-2.624c0.182-0.179,0.184-0.471,0.004-0.653C204.757,188.72,204.464,188.719,204.283,188.898z
	 M179.493,221.262c-0.611,1.08-1.207,2.168-1.79,3.264c-0.12,0.225-0.034,0.505,0.191,0.625c0.069,0.037,0.143,0.054,0.217,0.054
	c0.165,0,0.325-0.089,0.408-0.245c0.58-1.09,1.173-2.171,1.779-3.244c0.126-0.222,0.047-0.504-0.175-0.63
	C179.9,220.962,179.618,221.04,179.493,221.262z M228.174,169.811c-1.042,0.667-2.075,1.347-3.098,2.041
	c-0.211,0.143-0.267,0.43-0.124,0.641c0.089,0.132,0.235,0.203,0.383,0.203c0.089,0,0.179-0.026,0.258-0.079
	c1.017-0.689,2.044-1.365,3.079-2.028c0.215-0.138,0.277-0.423,0.14-0.638C228.674,169.737,228.388,169.672,228.174,169.811z
	 M211.802,181.986c-0.939,0.805-1.869,1.623-2.788,2.452c-0.189,0.17-0.204,0.463-0.033,0.652c0.091,0.101,0.216,0.152,0.343,0.152
	c0.111,0,0.221-0.039,0.309-0.119c0.914-0.824,1.837-1.636,2.771-2.437c0.193-0.166,0.216-0.457,0.05-0.651
	C212.288,181.843,211.996,181.82,211.802,181.986z M163.117,268.89c-0.255-0.048-0.49,0.129-0.53,0.38
	c-0.201,1.22-0.385,2.445-0.556,3.674c-0.035,0.253,0.141,0.486,0.394,0.52c0.021,0.003,0.043,0.005,0.064,0.005
	c0.227,0,0.425-0.167,0.457-0.399c0.169-1.222,0.353-2.439,0.552-3.651C163.539,269.168,163.369,268.931,163.117,268.89z
	 M246.059,160.039c-1.124,0.516-2.24,1.045-3.348,1.588c-0.229,0.112-0.323,0.389-0.212,0.618c0.08,0.163,0.244,0.258,0.415,0.258
	c0.068,0,0.138-0.015,0.203-0.047c1.101-0.54,2.21-1.066,3.326-1.578c0.232-0.106,0.334-0.381,0.227-0.612
	C246.565,160.035,246.292,159.934,246.059,160.039z M236.948,164.612c-1.085,0.593-2.162,1.2-3.231,1.819
	c-0.221,0.128-0.296,0.41-0.168,0.631c0.086,0.147,0.241,0.23,0.4,0.23c0.078,0,0.158-0.02,0.231-0.062
	c1.062-0.616,2.132-1.218,3.21-1.808c0.224-0.122,0.306-0.403,0.184-0.626C237.453,164.572,237.172,164.489,236.948,164.612z
	 M161.467,303.956c0.011,0,0.022,0,0.032-0.001c0.254-0.018,0.446-0.239,0.428-0.493c-0.085-1.225-0.156-2.454-0.211-3.687
	c-0.012-0.255-0.231-0.462-0.482-0.441c-0.255,0.011-0.452,0.227-0.441,0.482c0.055,1.241,0.127,2.478,0.212,3.709
	C161.023,303.77,161.226,303.956,161.467,303.956z M160.688,289.6c-0.028,1.186-0.043,2.376-0.043,3.569v0.146
	c0,0.255,0.207,0.462,0.462,0.462c0.255,0,0.462-0.207,0.462-0.462v-0.146c0-1.185,0.014-2.368,0.043-3.546
	c0.006-0.255-0.196-0.467-0.451-0.473C160.902,289.135,160.695,289.345,160.688,289.6z M174.774,230.343
	c-0.533,1.121-1.052,2.249-1.558,3.384c-0.103,0.233,0.001,0.506,0.234,0.61c0.061,0.027,0.124,0.04,0.187,0.04
	c0.177,0,0.346-0.102,0.422-0.274c0.502-1.128,1.018-2.249,1.548-3.362c0.11-0.23,0.012-0.506-0.219-0.616
	C175.158,230.016,174.884,230.113,174.774,230.343z M162.529,314.084c0.021,0,0.043-0.002,0.065-0.004
	c0.253-0.035,0.429-0.269,0.393-0.521c-0.17-1.216-0.326-2.437-0.467-3.663c-0.029-0.253-0.258-0.437-0.511-0.406
	c-0.253,0.029-0.435,0.258-0.406,0.511c0.142,1.233,0.298,2.462,0.47,3.686C162.105,313.917,162.302,314.084,162.529,314.084z
	 M161.447,283.6c0.241,0,0.444-0.187,0.46-0.431c0.083-1.231,0.182-2.458,0.297-3.681c0.023-0.254-0.163-0.479-0.417-0.503
	c-0.251-0.024-0.479,0.163-0.503,0.417c-0.115,1.23-0.214,2.465-0.299,3.704c-0.017,0.254,0.175,0.474,0.43,0.492
	C161.426,283.599,161.437,283.6,161.447,283.6z M164.594,259.254c-0.285,1.203-0.556,2.412-0.812,3.626
	c-0.052,0.249,0.107,0.495,0.357,0.547c0.032,0.007,0.064,0.01,0.096,0.01c0.214,0,0.406-0.149,0.451-0.367
	c0.254-1.207,0.523-2.408,0.806-3.604c0.059-0.248-0.094-0.497-0.343-0.556C164.903,258.85,164.653,259.005,164.594,259.254z
	 M170.703,239.738c-0.453,1.155-0.892,2.318-1.317,3.488c-0.087,0.239,0.037,0.505,0.277,0.592c0.052,0.018,0.105,0.027,0.157,0.027
	c0.189,0,0.366-0.116,0.434-0.304c0.422-1.162,0.857-2.317,1.308-3.465c0.093-0.238-0.024-0.505-0.261-0.598
	C171.064,239.385,170.796,239.501,170.703,239.738z M167.3,249.402c-0.37,1.181-0.724,2.368-1.065,3.561
	c-0.07,0.245,0.072,0.501,0.318,0.571c0.042,0.012,0.085,0.018,0.127,0.018c0.201,0,0.386-0.132,0.444-0.335
	c0.338-1.185,0.69-2.365,1.057-3.538c0.076-0.244-0.059-0.502-0.303-0.579C167.634,249.022,167.376,249.158,167.3,249.402z
	 M451.055,515.96c2.156,4.339,4.794,8.48,6.863,12.841c0.341,0.718,0.664,1.443,0.999,2.163l4.732-0.931
	c-3.912-7.444-7.862-14.865-12.001-22.184C451.17,510.535,450.986,513.252,451.055,515.96z M464.759,483.958
	c1.054,3.21,2.114,6.418,3.266,9.595c0.68,1.877-2.309,2.678-2.982,0.822c-0.948-2.613-1.83-5.249-2.702-7.887
	c-0.529,0.591-1.055,1.187-1.554,1.802c4.628,12.308,8.692,24.81,12.595,37.368l1.939-2.431
	c-2.647-14.247-4.616-28.632-6.114-43.077C467.648,481.328,466.162,482.602,464.759,483.958z M455.36,496.716
	c2.166,4.088,4.322,8.182,6.307,12.36c0.85,1.79-1.817,3.357-2.67,1.561c-1.658-3.49-3.43-6.921-5.225-10.34
	c-0.401,1.035-0.764,2.086-1.081,3.153c4.897,8.521,9.513,17.197,14.085,25.898c1.411-0.371,2.816-0.873,4.062-1.583
	c-3.802-12.284-7.753-24.515-12.23-36.563C457.395,492.963,456.31,494.807,455.36,496.716z M488.785,525.244l0.202,0.011
	c0.033-0.582,0.056-1.165,0.094-1.747L488.785,525.244z M477.859,519.172h-0.149c0.048,0.271,0.1,0.54,0.148,0.81L477.859,519.172z
	 M496.442,470.643c-0.033,0-0.065,0.003-0.098,0.003c0.139,0.889,0.268,1.78,0.378,2.679c0.036-0.186,0.072-0.372,0.108-0.558
	C496.703,472.059,496.574,471.351,496.442,470.643z M476.762,513.591c0.137-12.738,0.088-25.239-0.79-37.703
	c-1.319,0.692-2.618,1.426-3.869,2.238C473.305,490.001,474.823,501.836,476.762,513.591z M517.626,528.715
	c0.779-2.082,1.555-4.166,2.353-6.241c3.411-8.87,6.807-17.8,10.98-26.345c0.997-2.041,2.025-4.084,3.034-6.139
	c-0.475-0.625-0.964-1.238-1.469-1.839c-1.394,2.611-2.764,5.235-4.089,7.884c-4.557,9.109-8.694,18.403-12.833,27.706
	c-0.189,0.425-0.394,0.863-0.588,1.292l1.08,0.043C516.094,525.076,516.812,526.585,517.626,528.715z M508.911,538.314
	c-0.01,0.022-0.02,0.045-0.03,0.067h5.19c0.018-0.05,0.036-0.1,0.055-0.15L508.911,538.314z M499.503,525.783l2.331-3.36
	c0.326-1.093,0.665-2.183,1.005-3.272l-0.583,0.009c-0.478-5.805-0.971-11.553-1.537-17.265c-0.314-0.336-0.498-0.802-0.401-1.365
	c0.053-0.308,0.117-0.613,0.172-0.92c-0.632-6.139-1.36-12.238-2.264-18.318c-0.293,1.517-0.582,3.034-0.869,4.552
	c-0.161,9.377-1.69,18.914-4.382,27.94c-0.596,5.359-1.001,10.719-1.154,16.081C494.696,529.193,497.845,528.133,499.503,525.783z
	 M526.689,492.638c1.18-2.329,2.408-4.63,3.651-6.922c-0.687-0.718-1.396-1.415-2.125-2.09c-2.236,3.608-4.475,7.213-6.853,10.731
	c-0.351,0.519-0.859,0.718-1.354,0.696c-0.078,4.739-0.483,9.464-1.205,14.093C521.338,503.6,523.931,498.083,526.689,492.638z
	 M525.852,481.574c-1.478-1.208-3.021-2.337-4.623-3.372c-0.613,1.436-1.194,2.885-1.79,4.328c0.303,2.739,0.485,5.5,0.556,8.268
	C521.995,487.754,523.934,484.671,525.852,481.574z M504.734,538.381h0.809c0.002-0.004,0.004-0.009,0.006-0.013L504.734,538.381z
	 M518.539,538.16l-1.11,0.018c-0.025,0.068-0.05,0.135-0.074,0.203h9.064c5.255-7.056,11.12-13.749,16.947-20.287
	c0.053-3.658-0.314-7.322-1.155-10.91c-0.039-0.164-0.086-0.326-0.127-0.49c-4.423,5.045-8.256,10.467-10.487,16.754
	c-0.662,1.865-3.648,1.057-2.982-0.822c2.614-7.367,7.245-13.561,12.482-19.338c-1.238-3.674-2.96-7.171-5.076-10.418
	c-4.573,9.307-8.55,18.781-12.299,28.453c-1.559,4.022-3.07,8.061-4.561,12.108c0.287,1.099,0.521,2.207,0.647,3.258
	C519.9,537.461,519.317,538.148,518.539,538.16z M478.247,371.118c-1.518-0.593-2.932-1.252-4.216-1.969
	c-2.217-1.237-4.043-2.649-5.307-4.211c2.358-12.247,4.214-24.529,5.391-36.855c-2.492,0.344-4.988,0.655-7.492,0.894
	c-2.805,0.268-6.183,0.212-7.731-2.143c-1.201-1.828-0.72-4.242-0.163-6.358c3.827-14.539,10.715-31.114,17.593-44.778
	c0.278-0.652,0.599-1.284,0.959-1.894c0.01-0.019,0.02-0.04,0.03-0.059l0,0.01c1.179-1.976,2.778-3.706,4.746-5.026l0.083-0.055
	c-2.153,9.97-3.12,20.048-3.495,30.18c-0.919-0.364-1.85-0.646-2.75-0.822c-0.495-0.096-0.747,0.626-0.349,0.836
	c1.037,0.546,2.058,1.124,3.035,1.76c-0.004,0.131-0.006,0.262-0.01,0.393c-1.67-1.057-3.581-1.788-5.36-2.135
	c-0.495-0.096-0.747,0.626-0.349,0.836c1.769,0.932,3.512,1.933,5.023,3.214c0.188,0.159,0.367,0.326,0.543,0.496
	c-0.003,0.003-0.006,0.006-0.009,0.008c-1.855-1.39-4.146-2.337-6.251-2.747c-0.495-0.096-0.747,0.626-0.349,0.836
	c1.769,0.932,3.512,1.933,5.023,3.214c0.082,0.07,0.16,0.145,0.24,0.217c-0.063,0.09-0.125,0.182-0.186,0.277
	c-1.734-1.156-3.764-1.951-5.645-2.318c-0.495-0.096-0.747,0.626-0.349,0.836c1.769,0.932,3.512,1.933,5.023,3.214
	c0.585,1.447,1.719,3.476,2.519,4.711c0,0.057,0,0.115,0,0.172c0.095-0.024,0.19-0.047,0.285-0.071l10.748-2.018
	c-0.028-0.053-0.061-0.102-0.09-0.155c0.91-0.139,1.821-0.273,2.733-0.388c1.337-9.041,2.879-18.108,4.615-27.223
	c0.906-8.154,3.467-15.478,9.887-20.503c3.347,0.086,6.683,0.574,9.925,1.51c0.457,0.132,0.977,0.336,1.537,0.601
	c0.223,0.105,0.457,0.227,0.692,0.351c3.896,2.056,9.185,6.546,9.468,10.104c2.671,33.642-3.111,55.433-4.056,99.007
	c-0.209,0.101-0.432,0.197-0.662,0.29c-7.807,3.162-27.561,2.123-37.134,0.133c0.413-16.137,1.652-32.205,3.589-48.319
	c-3.744,0.861-7.514,1.606-11.305,2.228C479.004,342.016,479.436,356.641,478.247,371.118z M511.419,314.409
	c-1.04,3.015-2.931,5.683-6.055,7.538c0.786,0.319,1.572,0.609,2.234,0.801c1.427,1.373,2.6,3.006,3.706,4.672
	c0.249,0.375,0.942,0.05,0.796-0.432c-0.555-1.834-1.552-3.773-2.877-5.382c0.088-0.071,0.173-0.142,0.256-0.213
	c0.08,0.072,0.162,0.141,0.24,0.216c1.427,1.373,2.599,3.006,3.706,4.672c0.249,0.375,0.942,0.05,0.796-0.432
	c-0.621-2.053-1.795-4.236-3.366-5.941c0.002-0.003,0.005-0.007,0.007-0.01c0.187,0.158,0.371,0.32,0.549,0.49
	c1.427,1.373,2.6,3.006,3.706,4.672c0.249,0.375,0.942,0.05,0.796-0.432c-0.716-2.365-2.162-4.906-4.107-6.684
	c0.038-0.124,0.071-0.254,0.103-0.384c0.026,0.024,0.053,0.047,0.079,0.071c1.427,1.373,2.6,3.006,3.706,4.672
	c0.249,0.375,0.942,0.05,0.796-0.432C515.663,319.131,513.851,316.16,511.419,314.409z M437.444,519.338l5.999,9.406l1.487-0.76
	l-5.773-16.106l-0.006,0.019c-0.378-1.178-1.19-2.234-2.37-2.907l-3.145-1.793l0,0l2.88,8.142l-6.386,10.13l-4.639,1.052
	l-0.585,7.942l-2.024,3.918l-0.61,1.18l2.309-1.18l6.934-3.543L437.444,519.338z M373.934,538.675l0.327-0.295l12.006-10.81
	l1.034,10.81l0.028,0.295h1.67l0.038-0.295l2.149-16.674l-0.014,0.014c0.199-1.221-0.043-2.531-0.788-3.667l-1.985-3.028
	l-1.14,8.561l-10.296,6.115l-4.609-1.174l-4.135,6.806l-4.254,3.047l-0.411,0.295H373.934z M364.517,376.964
	c14.803,6.311,38.62,4.379,52.818-3.195c-0.492-2.923-1.066-5.615-1.68-8.118c-1.038,0.662-2.195,1.24-3.413,1.795
	c-1.24,1.597-2.185,3.419-3.058,5.264c-0.197,0.416-0.945,0.189-0.868-0.319c0.291-1.935,1.013-4.04,2.116-5.86
	c-0.099-0.059-0.196-0.118-0.29-0.178c-0.07,0.085-0.143,0.167-0.211,0.254c-1.24,1.597-2.185,3.419-3.058,5.264
	c-0.197,0.416-0.945,0.189-0.868-0.319c0.326-2.165,1.191-4.543,2.528-6.496c-0.003-0.003-0.006-0.006-0.009-0.009
	c-0.166,0.187-0.328,0.377-0.482,0.576c-1.24,1.597-2.185,3.419-3.058,5.265c-0.197,0.415-0.945,0.189-0.868-0.319
	c0.376-2.494,1.463-5.274,3.167-7.357c-0.056-0.12-0.109-0.246-0.161-0.373c-0.023,0.028-0.047,0.055-0.069,0.084
	c-1.24,1.597-2.185,3.419-3.058,5.264c-0.197,0.416-0.945,0.189-0.868-0.319c0.5-3.32,2.263-7.14,5.06-9.153
	c1.267-1.471,2.722-2.769,4.301-3.908c-2.788-8.419-5.151-14.098-3.921-19.423c0.786-3.401,1.609-6.161,2.453-8.795
	c1.258-3.923,2.565-7.562,3.874-12.592c0.438-1.682,0.904-3.434,1.352-5.225c2.165,2.376,4.304,4.715,6.535,7.19
	c2.096,2.325,4.273,4.77,6.639,7.496c-0.693,1.184-1.418,2.542-2.165,4.01c4.472,1.716,7.408,4.985,9.921,8.478
	c2.9-4.282,5.464-8.785,7.576-14.068c-7.945-9.098-13.284-16.886-19.588-25.158c-2.331-3.059-4.794-6.185-7.57-9.467
	c-0.011-0.038-0.018-0.077-0.029-0.115c-0.85-2.899-2.284-5.815-4.468-7.815C400.241,282.808,388.748,290.19,382,302
	c-0.743-5.948,0.728-12.446,4.407-17.444c-4.347,2.887-8.344,6.124-10.868,8.827c-14.099,15.097-1.587,20.961-1.665,34.04
	c-0.005,0.815-0.054,1.655-0.166,2.529c-0.721,5.625-1.54,11.367-2.531,17.215c-1.433,3.002-3.074,6.492-3.484,7.184
	c0.698,0.321,1.341,0.692,1.96,1.083c0,0,0,0,0,0c-0.453,2.303-0.939,4.621-1.458,6.954
	C367.126,367.19,365.925,372.045,364.517,376.964z"></path>
<path id="color_x5F_1" fill="#0984E3" d="M134.964,166.407c-0.188-0.161-0.384-0.314-0.59-0.458
	c6.51-8.907,13.743-17.379,21.693-25.328c40.327-40.327,93.944-62.536,150.976-62.536c57.031,0,110.649,22.209,150.976,62.536
	c16.565,16.566,30.067,35.378,40.234,55.744c-0.241,0.089-0.475,0.186-0.7,0.296C462.596,126.795,390.335,78.706,307.042,78.706
	C236.41,78.706,173.713,113.291,134.964,166.407z M146.159,431.967c3.172,3.626,6.47,7.166,9.908,10.604
	c10.726,10.726,22.393,20.169,34.815,28.253c-2.399,0.216-4.775,0.62-7.101,1.23c-0.447,6.12-0.791,12.242-0.88,18.369
	c3.315-5.792,7.261-11.346,11.716-16.445c0.045-0.231,0.09-0.462,0.135-0.694c0.102,0.063,0.206,0.124,0.308,0.187
	c0.174-0.196,0.342-0.396,0.517-0.591c-0.221-0.137-0.448-0.266-0.668-0.404c0.118-0.608,0.236-1.215,0.354-1.823
	c-0.211-0.004-0.421-0.016-0.632-0.016c-0.826-0.002-1.649,0.03-2.47,0.079c-17.13-11.026-32.583-24.434-45.887-39.763l-0.097,0.845
	L146.159,431.967z M223.409,488.153c-0.08,0.128-0.159,0.256-0.24,0.384c-0.336,3.022-0.634,6.051-0.909,9.088
	c0.811-1.665,1.614-3.333,2.451-4.987c0.549-1.084,1.111-2.161,1.677-3.235c0.96,0.391,1.927,0.768,2.893,1.145
	c-0.957,1.82-1.904,3.646-2.825,5.487c-1.693,3.384-3.316,6.799-4.914,10.225c-0.221,2.879-0.428,5.768-0.626,8.671
	c2.484-6.356,5.074-12.679,8.065-18.802c0.777-1.592,1.574-3.188,2.365-4.786c16.255,6.149,33.291,10.305,50.809,12.326
	c0.011-0.211,0.03-0.421,0.055-0.631c-17.586-2.053-34.515-6.277-50.534-12.362c0.113-0.229,0.226-0.456,0.339-0.685
	c-0.475-0.625-0.964-1.238-1.469-1.839c-0.311,0.582-0.615,1.167-0.923,1.75c-0.965-0.378-1.917-0.783-2.876-1.174
	c0.534-1.006,1.072-2.01,1.615-3.012c-0.687-0.718-1.396-1.415-2.125-2.09c-0.807,1.303-1.621,2.601-2.436,3.899
	c-0.164-0.07-0.326-0.146-0.49-0.216c-0.029,0.255-0.06,0.511-0.089,0.766C223.285,488.101,223.347,488.127,223.409,488.153z
	 M505.388,212.293c-0.213,0.109-0.435,0.208-0.663,0.298c6.47,16.131,11.009,33.233,13.358,51.017
	c0.223,0.105,0.457,0.227,0.692,0.351C516.478,246.113,511.977,228.781,505.388,212.293z M458.018,442.571
	c4.931-4.931,9.586-10.063,13.967-15.373c-0.005-0.382-0.013-0.763-0.016-1.146c-14.962,18.319-32.909,34.103-53.092,46.615
	l0.276,0.714C433.091,464.75,446.136,454.454,458.018,442.571z M405.649,480.225c-5.128,2.692-10.372,5.192-15.734,7.467
	l-0.086,0.826c5.515-2.319,10.929-4.875,16.234-7.659L405.649,480.225z M307.042,504.486c-2.72,0-5.427-0.054-8.122-0.156
	c-0.003,0.203-0.01,0.407-0.025,0.609c2.708,0.101,5.423,0.168,8.147,0.168c24.315,0,48.004-4.051,70.312-11.807l-0.078-0.734
	C355.276,500.278,331.643,504.486,307.042,504.486z M149.671,507.849c-0.479,2.686-0.663,5.403-0.594,8.111
	c2.156,4.339,4.794,8.48,6.863,12.841c1.504,3.169,2.941,6.369,4.354,9.58h5.757c-0.143-0.271-0.286-0.541-0.428-0.812
	C160.403,527.608,155.205,517.636,149.671,507.849z M167.229,480.149c-1.559,1.179-3.045,2.452-4.448,3.809
	c1.054,3.21,2.114,6.418,3.266,9.595c0.68,1.877-2.309,2.678-2.982,0.822c-0.948-2.613-1.83-5.249-2.702-7.887
	c-0.529,0.591-1.055,1.187-1.554,1.802c2.552,6.787,4.93,13.634,7.208,20.516c1.319-1.161,2.895-2.252,4.398-3.18
	C169.167,497.164,168.112,488.668,167.229,480.149z M167.297,512.715c2.769,8.522,5.404,17.09,8.019,25.666h1.129
	c-1.594-7.108-2.999-14.258-4.23-21.442L167.297,512.715z M153.382,496.716c2.166,4.088,4.322,8.182,6.307,12.36
	c0.85,1.79-1.817,3.357-2.67,1.561c-1.658-3.49-3.43-6.921-5.225-10.34c-0.401,1.035-0.764,2.086-1.081,3.153
	c6.496,11.304,12.498,22.879,18.558,34.425c0.089,0.169,0.18,0.336,0.269,0.505h2.574c-4.824-15.844-9.718-31.662-15.485-47.178
	C155.417,492.963,154.332,494.807,153.382,496.716z M186.822,529.485l-10.918-9.377c1.098,6.119,2.325,12.211,3.694,18.273h7.183
	C186.71,535.415,186.726,532.449,186.822,529.485z M188.446,509.823c0.132-1.038,0.273-2.077,0.417-3.115l-1.191,1.183l0.941,0.035
	L188.446,509.823z M180.619,473.009c-3.685,1.261-7.216,2.99-10.495,5.117c0.875,8.642,1.921,17.263,3.166,25.848
	c1.468-0.788,2.497-1.264,2.497-1.264l0.925,0.709l3.162-4.438c-0.009-0.289-0.012-0.577-0.019-0.866l-0.669-0.574
	c0.201-0.43,0.42-0.856,0.628-1.285C179.702,488.5,180.068,480.753,180.619,473.009z M195.329,536.792l-5.545-4.763
	c-0.032,2.117-0.01,4.235,0.046,6.352h5.906c0.101-0.471,0.201-0.941,0.306-1.411C195.802,537.02,195.54,536.973,195.329,536.792z
	 M191.867,522.537l3.723,4.76c0.981,1.254,1.57,2.743,1.74,4.287c1.88-7.394,4.164-14.705,6.641-21.905
	c-0.819-4.682-1.316-9.469-1.474-14.276c-0.43,1.972-0.831,3.952-1.175,5.948c-0.338,1.96-3.317,1.124-2.982-0.822
	c0.103-0.594,0.221-1.184,0.332-1.777c-2.354,2.227-4.575,4.368-6.561,6.342c-0.74,5.123-1.342,10.248-1.753,15.374
	C190.842,521.194,191.359,521.888,191.867,522.537z M203.361,536.979c0.531-5.132,3.528-11.671,3.528-11.671l1.164-0.065
	l-0.552-6.071H206.1c-0.32-1.148-0.619-2.307-0.899-3.476c-2.449,7.46-4.632,15.033-6.307,22.684h4.67
	c0.052-0.118,0.103-0.236,0.155-0.353C203.464,537.759,203.319,537.384,203.361,536.979z M231.293,529.721
	c3.294-3.955,6.7-7.818,10.095-11.627c0.053-3.658-0.314-7.322-1.155-10.91c-0.039-0.164-0.086-0.326-0.127-0.49
	c-4.423,5.045-8.256,10.467-10.487,16.754c-0.662,1.865-3.648,1.057-2.982-0.822c2.614-7.367,7.245-13.561,12.482-19.338
	c-1.238-3.674-2.96-7.171-5.076-10.418c-4.573,9.307-8.55,18.781-12.299,28.453c-0.168,0.434-0.328,0.871-0.495,1.305l2.241,3.123
	C225.196,528.09,228.392,529.096,231.293,529.721z M231.487,371.118c4.136-1.616,7.526-3.713,9.524-6.179l-0.94,18.873l8.945-3.773
	c-3.023-9.175-7.144-20.136-10.615-30.04c-3.735-23.823-5.319-47.792-3.345-71.977c0.149-1.825-0.504-3.637-1.838-4.891
	c-1.767-1.66-3.654-3.14-5.625-4.455C234.85,302.282,228.693,337.107,231.487,371.118z M195.228,373.577
	c-9.654-8.961-18.319-18.995-25.699-29.895c-3.363-4.967-6.469-10.108-9.271-15.415l3.103-6.946l0.644-1.441l21.955-49.151
	c0.393-0.88,0.91-1.666,1.505-2.367c1.127-2.608,3.176-4.619,5.722-5.354c3.243-0.936,6.578-1.424,9.925-1.51
	c6.42,5.025,8.981,12.35,9.887,20.503c5.861,30.772,9.563,61.008,10.343,91.492c-5.347,1.112-11.135,1.538-16.479,1.141
	c-0.034-0.055-0.06-0.114-0.094-0.169c0.011-0.005,0.021-0.01,0.032-0.016c-0.84-1.888-1.794-3.915-2.825-6.035L195.228,373.577z
	 M187.82,336.849c0.131,0.262,0.272,0.536,0.405,0.801c-0.728-5.448-1.311-10.915-1.74-16.399c-1.104,1.988-2.207,3.961-3.306,5.889
	C184.493,330.09,186.085,333.382,187.82,336.849z M94.081,538.381l-2.024-3.918l-0.586-7.942l-4.639-1.052l-6.386-10.13l2.128-6.014
	l0.753-2.128l0,0l-3.145,1.793c-1.18,0.673-1.991,1.729-2.37,2.907l-0.006-0.019l-5.773,16.106l1.487,0.76l5.999-9.406l5.929,15.5
	l6.934,3.543l2.309,1.18L94.081,538.381z M144.608,528.528l-4.609,1.174l-10.296-6.115l-1.14-8.561l-1.985,3.028
	c-0.745,1.136-0.987,2.446-0.788,3.667l-0.014-0.014l2.149,16.674l0.038,0.295h1.67l0.028-0.295l1.034-10.81l12.006,10.81
	l0.327,0.295h10.38l-0.411-0.295l-4.254-3.047L144.608,528.528z M99.629,373.769c1.11-6.589,2.628-12.033,4.107-16.681
	c-1.342-4.178-2.55-8.403-3.632-12.668c-0.693-0.379-1.387-0.771-2.085-1.185c0.14-2.201,0.237-4.314,0.303-6.361
	c-3.165-14.713-4.791-29.87-4.791-45.278c0-39.831,10.846-77.99,31.119-111.126c0.203,0.14,0.413,0.272,0.633,0.393
	c-11.803,19.302-20.617,40.62-25.8,63.306c-1.382,4.063-2.182,8.436-2.505,12.784c-1.854,11.277-2.825,22.848-2.825,34.643
	c0,14.492,1.47,28.645,4.244,42.331c0.235-12.597-0.589-23.004,0.205-36.757c-0.282-3.473-0.128-6.881,0.797-10.035
	c0.85-2.899,2.284-5.815,4.468-7.815c12.857,3.488,24.349,10.87,31.098,22.68c0.743-5.948-0.728-12.446-4.407-17.444
	c4.347,2.887,8.344,6.124,10.868,8.827c14.978,16.037-0.08,21.652,1.831,36.57c0.721,5.625,1.54,11.367,2.531,17.215
	c0.418,0.875,0.85,1.783,1.267,2.66c-2.206-0.238-4.445-0.174-6.658,0.189c-6.01-2.896-13.406-7.039-19.977-10.439
	c-1.782-0.922-3.498-1.785-5.114-2.559c-2.503,4.083-2.843,8.464-2.71,12.765c1.807,0.601,3.631,1.155,5.487,1.677
	c6.86,1.93,14.149,3.499,22.507,5.956c0.316,0.789,0.893,1.463,1.661,1.884c1.845,1.013,3.877,1.143,6.034,0.89
	c0.156,0.73,0.321,1.464,0.485,2.197c1.069,4.802,2.27,9.657,3.678,14.576C137.643,383.275,113.827,381.343,99.629,373.769z
	 M104.099,355.956c1.006-3.094,1.974-5.826,2.765-8.303c-1.983-0.823-3.962-1.749-5.951-2.803
	C101.88,348.591,102.936,352.297,104.099,355.956z"></path>
</svg>