<svg xmlns="http://www.w3.org/2000/svg" version="1.1" xmlns:xlink="http://www.w3.org/1999/xlink" xmlns:svgjs="http://svgjs.com/svgjs" width="1440" height="560" preserveAspectRatio="none" viewBox="0 0 1440 560">
    <g mask="url(&quot;#SvgjsMask1000&quot;)" fill="none">
        <path d="M560 235.79C542.63 235.79 537.4 255.32 522.39 280C481.4 347.42 437.27 368.25 448 420C456.08 458.99 512.69 461.48 560 461.48C578.02 461.48 575.16 442.21 578.67 420C589.48 351.47 595.43 346.97 588.64 280C586.09 254.87 575.76 235.79 560 235.79" stroke="rgba(212, 10, 175, 0.25)" stroke-width="2"></path>
        <path d="M1400 241.82C1379.78 241.82 1363.25 260.47 1363.25 280C1363.25 300.56 1379.57 322 1400 322C1425.17 322 1454.44 300.38 1454.44 280C1454.44 260.29 1425.37 241.82 1400 241.82" stroke="rgba(212, 10, 175, 0.25)" stroke-width="2"></path>
        <path d="M0 23.83C34.92 23.83 82.7 70.66 118.7 140C149.2 198.75 135.83 210.4 133 280C130.14 350.4 120.24 350.01 107.33 420C94.41 490.01 115.5 515.45 81.35 560C61.84 585.45 14.95 585.73 0 560C-25.73 515.73 0 490 0 420C0 350 0 350 0 280C0 210 0 210 0 140C0 81.91 -24.43 23.83 0 23.83" stroke="rgba(212, 10, 175, 0.25)" stroke-width="2"></path>
        <path d="M160 140C195.3 78.88 221.13 45.16 280 45.16C335.58 45.16 338.47 89.04 388.89 140C408.47 159.79 405.94 162.44 420 186.67C446.57 232.44 470.15 234.82 470.15 280C470.15 317.23 447.07 317.32 420 351.49C391.62 387.32 359.25 385.58 359.25 420C359.25 454.84 384.45 461.03 420 490C470.34 531.03 531.03 541.04 531.03 560C531.03 576.04 475.51 560 420 560C350 560 350 560 280 560C262.92 560 254.57 572.78 245.85 560C206.84 502.78 210.53 491.68 184.55 420C159.79 351.68 150.62 351.17 144.38 280C138.34 211.17 127.49 196.3 160 140" stroke="rgba(212, 10, 175, 0.25)" stroke-width="2"></path>
        <path d="M484.62 140C484.62 123.46 526.21 130.44 560 107.87C631.04 60.44 626.54 52.2 694.29 0C696.54 -1.73 697.14 0 700 0C720 0 730.54 -14.87 740 0C775.09 55.13 756.86 74.25 789.09 140C806.86 176.25 808.36 179.06 840 204C897.15 249.06 946.37 225.91 966.67 280C986.9 333.91 931.86 348.24 921.05 420C910.77 488.24 949.76 516.34 924.48 560C909.23 586.34 882.24 560 840 560C770 560 770 560 700 560C641.06 560 595.95 590.76 582.11 560C564.45 520.76 625.02 492.44 637 420C648.17 352.44 648.7 344.73 628.41 280C610.2 221.93 603.35 216.6 560 174.39C531.46 146.6 484.62 156.72 484.62 140" stroke="rgba(212, 10, 175, 0.25)" stroke-width="2"></path>
        <path d="M980 49.83C929.14 49.83 866.92 13.01 866.92 0C866.92 -11.91 923.46 0 980 0C1001.31 0 1022.61 -9.81 1022.61 0C1022.61 15.1 1006.98 49.83 980 49.83" stroke="rgba(212, 10, 175, 0.25)" stroke-width="2"></path>
        <path d="M1260 66.89C1225.58 34.88 1193.85 19.64 1193.85 0C1193.85 -13.81 1226.93 0 1260 0C1311.01 0 1318.2 -14.92 1362.03 0C1388.2 8.91 1376.86 47.66 1400 47.66C1434.47 47.66 1435.86 14.09 1477.24 0C1505.86 -9.74 1530.29 -21.67 1540 0C1561.67 48.33 1540 70 1540 140C1540 210 1540 210 1540 280C1540 297.5 1544.8 315 1540 315C1534.43 315 1534.54 292.95 1519.26 280C1464.54 233.63 1456.65 241.71 1400 196.36C1369.2 171.71 1373.41 166.87 1344.36 140C1303.41 102.13 1300.84 104.88 1260 66.89" stroke="rgba(212, 10, 175, 0.25)" stroke-width="2"></path>
        <path d="M1187.88 280C1220.6 247.23 1225.34 221.23 1260 221.23C1291.15 221.23 1291.06 249.38 1319.5 280C1361.06 324.76 1355.59 330.69 1400 372C1430.84 400.69 1437.02 393.47 1470 420C1507.02 449.78 1520.46 445.54 1540 484.62C1555.46 515.54 1558.85 541.15 1540 560C1521.15 578.85 1495.54 575.46 1464.62 560C1425.54 540.46 1441.28 501.05 1400 490C1338.97 473.66 1329.91 505.95 1260 505.22C1189.91 504.49 1185 509.79 1120 487.08C1063.07 467.18 1016.13 451.98 1016.13 420C1016.13 389.16 1074.54 398.5 1120 361.45C1160.42 328.5 1150.6 317.34 1187.88 280" stroke="rgba(212, 10, 175, 0.25)" stroke-width="2"></path>
        <path d="M0 98.3C12.54 98.3 42.61 114.99 42.61 140C42.61 184.84 11.11 238 0 238C-10.19 238 0 189 0 140C0 119.15 -8.77 98.3 0 98.3" stroke="rgba(212, 10, 175, 0.25)" stroke-width="2"></path>
        <path d="M231.43 140C235.42 112.89 256.17 101.61 280 101.61C302.49 101.61 307.96 116.05 324.07 140C367.96 205.25 407.33 213.51 400 280C391.9 353.51 342.7 347.83 293.21 420C282.7 435.33 287.18 455 280 455C272.62 455 266.91 438.81 264.09 420C253.79 351.31 261.87 349.66 253.75 280C245.54 209.66 222.29 202.08 231.43 140" stroke="rgba(212, 10, 175, 0.25)" stroke-width="2"></path>
        <path d="M670 140C673.11 124.72 687.25 123.85 700 123.85C707.02 123.85 704.23 132.28 709.55 140C758.07 210.35 805.68 209.08 807.69 280C809.65 349.08 708.93 361.17 717.5 420C725.08 472.01 788.68 452.68 840 501.67C862 522.68 864.14 538.9 864.14 560C864.14 568.07 852.07 560 840 560C770 560 770 560 700 560C687.11 560 674.57 570.79 674.21 560C672.23 500.79 696.83 489.75 695.33 420C693.82 349.75 674.57 350.64 668.18 280C661.91 210.64 657.2 202.79 670 140" stroke="rgba(212, 10, 175, 0.25)" stroke-width="2"></path>
        <path d="M1260 28C1244.67 28 1232.31 8.22 1232.31 0C1232.31 -5.78 1246.15 0 1260 0C1281.36 0 1302.71 -6.38 1302.71 0C1302.71 7.62 1279.87 28 1260 28" stroke="rgba(212, 10, 175, 0.25)" stroke-width="2"></path>
        <path d="M1389.23 140C1389.23 131.7 1391.01 127.03 1400 122.13C1466.39 85.99 1494.33 52.1 1540 57.93C1564.33 61.04 1540 98.97 1540 140C1540 175 1562.08 208.28 1540 210C1492.08 213.73 1468.48 182.7 1400 150.91C1393.09 147.7 1389.23 146.09 1389.23 140" stroke="rgba(212, 10, 175, 0.25)" stroke-width="2"></path>
        <path d="M1240.91 280C1240.91 269.31 1250.83 264.44 1260 264.44C1268.25 264.44 1275.75 270.01 1275.75 280C1275.75 309.29 1268.65 343 1260 343C1251.23 343 1240.91 308.59 1240.91 280" stroke="rgba(212, 10, 175, 0.25)" stroke-width="2"></path>
        <path d="M0 311.11C12.81 311.11 41.19 362.89 49 420C58.21 487.34 53.78 503.63 34.05 560C29.28 573.63 3.33 573.69 0 560C-13.69 503.69 0 490 0 420C0 365.56 -11.69 311.11 0 311.11" stroke="rgba(212, 10, 175, 0.25)" stroke-width="2"></path>
        <path d="M1531.92 560C1531.92 557.63 1537.63 551.92 1540 551.92C1541.67 551.92 1542.02 557.98 1540 560C1537.98 562.02 1531.92 561.67 1531.92 560" stroke="rgba(212, 10, 175, 0.25)" stroke-width="2"></path>
    </g>
    <defs>
        <mask id="SvgjsMask1000">
            <rect width="1440" height="560" fill="#ffffff"></rect>
        </mask>
    </defs>
</svg>